<mxfile host="65bd71144e">
    <diagram id="HIP3nbAZw_EuaXWnEj3U" name="Page-1">
        <mxGraphModel dx="1086" dy="694" grid="1" gridSize="10" guides="1" tooltips="1" connect="1" arrows="1" fold="1" page="1" pageScale="1" pageWidth="850" pageHeight="1100" math="0" shadow="0">
            <root>
                <mxCell id="0"/>
                <mxCell id="1" parent="0"/>
                <mxCell id="7" value="http://ics2o.mths.ca" style="swimlane;whiteSpace=wrap;html=1;" parent="1" vertex="1">
                    <mxGeometry x="40" y="40" width="760" height="480" as="geometry"/>
                </mxCell>
                <mxCell id="8" value="" style="shape=image;verticalLabelPosition=bottom;labelBackgroundColor=default;verticalAlign=top;aspect=fixed;imageAspect=0;image=data:image/png,iVBORw0KGgoAAAANSUhEUgAAAfQAAAH0CAYAAADL1t+KAAAACXBIWXMAAAxaAAAMWgHJnhv7AACxq0lEQVR4Xu2dB5wdVfXH77TXttf0XkkCCSRAQuiEIlKkK2JDRUD9WxC7AiqKiIoCIiiKHaVLkd4CJIGQ3pNNsrvZbG+vvzfl/s+Z3Q0Bkuwr82bmvXfux3VJMnPL9857vznnnnuuwKgQAYcIcK6LRmTrDN52/6eN7ufO5LGtM5jgSQq+8U1C9enPiWOuuVMKTNvlUPcKolme6KrRW//weaPrqXN4dNMspoXKBP+kXUL5cW+Ioz99v1hx/OuCKOsFMVgaBBEocgJCkY+fhu8QAUNPKsbum7+nN912vcRiAYO/tyP4YBqCkpQm/fAmadw3bxUkRXOoq3nZLL4s6e2PXKhv++LvRL2rjr+PrwiAdS5pYv0l/xGn/fb/JG9td14OlDpNBIjAPgIk6PQw2E6A66qsbr3qXt7+jytEpinvF5v9OwQ6xMXRV90jT7vjyyTqqU+VtuePn9W3XXu3AHwPdZf54lR23Bueuf89V/BU96beAl1JBIiA2wiIbusQ9afwCeh77vgy73z4Ykk4tJgjCXhABb73T5/V9v75M4VPxpoR6sHV8/QdX7tdBL7D1oiKHl5xrLb9K7/hhiYNez1dQASIgGsJkKC7dmoKs2NasrfS2PuHqzwsXGYYw49xwFOsKUbTj3/I9YRn+DuK+wrODUFv+M7PmBENHMrzMUQJr5EFXeY9L5xu9C9bVNz0aPREIL8JkKDn9/zlX+87Hr6IaZ11718zP9RABLQi1Z5qvfPRC/JvwDb3OL5nNAuuWCgKPOXPNs4FV3ureMcDH7W5t9QcESACFhJI+UNvYZtUVRET4JE187gWLk1H0E1L00h6ePfTZxcxupSGrnc/fQ7nybQ8GchXkZJePbjmyJQaoYuIABFwJQESdFdOSwF3SuuvZIYmpztCkemy0ff6CRhQl+69xXQ9733xNIaC/r6o9uEYoBdEMMKlw11H/04EiIB7CZCgu3duCrJnghCIMkFMYfX8vcM3BUfvrTLCG2cXJBgLBoUxBjy08mgJXn7S1HNmekFEX9yCblAVRIAIOESABN0h8EXbbOnMzUwMRNPdL4l6A4Ll5X1ggVI5MIHwqqMMta8yXTz4sqRqoi74pu5I9166nggQAfcQIEF3z1wUR0/KFy5ncllITPfJA0UXwJVs9L18SnGASn+Ues+LpwkcXnrSvNV8uZJLw0LFwmVp3kqXEwEi4CIC6X6tuqjr1JV8JCCULVgpKLVd6fbd9AgLhsRDa47kaiSQ7v3FcL3R9+rJgpHwprt+jlnjmFQWkqpOeqUYONEYiUChEiBBL9SZdem4JEzhWjJng6pLWrpud3NIeqRE73/zOJcOz7FucTVYxsObDxNFLqZroeP1glLXKZQdscGxAVDDRIAIZE2ABD1rhFRBugREtATBIjT3l6dRTKEy4j5GbvcPUNN7YSmCR9P2XOAcaFxJihVHv53GVNClRIAIuJAACboLJ6XQuyRUnfyyIJWGM1tHT3iN/qUnFjqjdMdn9L50KtNTyw63f934ToVzwSrJ3Z4uc7qeCLiNAAm622akCPojBabuZJ5RrZD6NS3vMF4siUxgsYYpPN42oghQpTxE3r98kciS3lTSvb5H0EHROew6kCpOeC3lxuhCIkAEXEmABN2V01L4nRIqFy3TOZx9noHbnesxv44WKRWTgB7bPUFI7hmbtscD74WXKsE3oVHwj2shnESACOQ3ARL0/J6/vO29UHnyy0wqiaT7AJoWKATGsf5XTs7bwVvdcdiulpG7HV6mDOZNCBXHL7W6S1QfESAC9hNI9/vU/h5SiwVJQKo47k0B9qODAz2tYp4OJsLpa/1vH0NpYAfQGb2vnsSMSEkqp9ftDxvRi1IgKlef9mJak0AXEwEi4EoCJOiunJbC75Tgre9kkJlM50LaaWDxJYAn20cY0S0zCp/UoUcIyw8+Hlk3V4KXnLRZoKLjS1X50W+lfS/dQASIgOsIkKC7bkqKp0NC1YmvMsEXNxObpFHMk9rgvG+j95WizxpnhNcfztTOujQRmrR1HV6mArM2CUplMA38dCkRIAIuJUCC7tKJKYZuCVWnvMQFbyJttzvY9AK4mHnfaycVA6dDjZGDu53rcBxtmn4OMxgRDmPBOSh2hjR+IlAoBEjQC2Um83AcUvlRq5lS3ZPuViscqizqMotumoUZ0vJw6JZ12Qi+cbyI6+dpbQCEFyIz3SsExFUtecGyzlBFRIAIOEqABN1R/MXduCCVRMWyeas5hzSwGfiMudpbxUKrjipWijzZXc2i26dJkiGlywBfojCnvlQ2e2O699L1RIAIuJMACbo756VoeiVUnvIyF8HtnmYxXcx6qEwvYre7EXzrGPOlJgN3u4EvUWXHrBBEj5omerqcCBABlxIgQXfpxBRLt4TqM54BU1FN10BHF7PEIDCu/43FxcLq/eM0+iAFrtZfka673awHXqLI3V6sTw6Nu1AJkKAX6szmybhE3+TdzDumJRNRkgQusnjjBB5rGZknw7W0mxwsdEmI+TNhxwRZk6qXPGNph6gyIkAEHCVAgu4ofmpcgAVgofy4NziT1XTX0U0hAwtVDy4rOitdj+6awBN7xpq57dMswA3St09pEPxj29O8lS4nAkTAxQRI0F08OcXSNREylQmSJ5nueDGwi2u9Vbzv9RPSvTffr+f9bxzPYP087e1q5sBljVVADgAqRIAIFBQBEvSCms78HAyu5XIhfUFHC10R4YSxIox0NwVdh5eZNLeroT0viIoqVtN2tfz8tFCvicDBCZCg09PhOAHJW9MjBA7bnO5xqthx09+sto/QQxtnOT4QmzrAuS7yyMbZigQ57dMVdBOaNyFWnEQWuk3zRc0QAbsIkKDbRZraOSQBETKWoeWY7oKwjm53taeaBd88rlgQG6E181iiLaNAQHxpEsqPXCUopZFi4UXjJALFQoAEvVhm2uXjlNDtziQ93RAv0+UMgm70LSsaQef9yxfimHma+8/NRwCi24WqUyndq8s/D9Q9IpAJARL0TKjRPdYTKF+4HE/+SndNGK/3KLh9bedk6zvlzhp5dPNhXA+Wp+tuR++HIMBLU+WS5905MuoVESAC2RAgQc+GHt1rGQFB9iUwcxnP9DhVI+bnasxnWYdcXBFPdtZlclwqOjO4XNUrlh25xsXDo64RASKQIQES9AzB0W3WEzC3r6EFmUkRRIPJ6aeQzaQpx++BLG86rIWn2w98WRIrj18qSpTuNV12dD0RyAcCJOj5MEtF0keh+synOQhzOoFxmIxG08CV7Bm7RxDEtEUuH9EKgRlbmVQWSvccedivZkCq3efycczUZyJABIYnQII+PCO6wiYCon96g1ByxDrMZJZqkyhqhljdLVSfVjTHgEo1Zz0rKPUdYpqfXi74Y1LtRQ+lypauIwJEIL8IpPmVkF+Do97mFwFMAytO+N5PwN5OWdDRQhdKZmwVRnzib/k12sx7K8CRs0LFCUuTqqinmi4Xgge5NO7LvxW8Vf2Zt0x3EgEi4GYCJOhunp0i7JtUf86T4pjP/SGVoctwCriqjGsSp/zs25JSEk3lnkK4BuIMDHnKLd8Syo9+OxW3u/nSU7FomTj+Oz8rhPHTGIgAETgwARJ0ejJcRcAUq2m//T9h9DV3oVV5sM6hkGmeyQ3yjD99Rq46camrBmFDZwRffac054HL9LITX0VOh4o74FWnP6vMeex8yUPJZGyYGmqCCBABIkAE9ifAdU3Su/53VnLVyS8nXpK1xEuSvu9n6Yh2dfu3btETHXXFTo1zVVab77o2uWzWpsRLijrEKAm8kivmrdH2/ukzeE2xc6LxE4FiIJBOQHEx8KAxupAAT3RXG+F1czD8jXnq28TA9J2C5E37dDYXDs2yLnHDEIx40ygW3z2JcUMUAzO2M9+o9mKJ/LcMJFVEBPKYAAl6DiaP66pscB2OqgYJgh8RtwvR3t8ckKYqiUBuCMBnGCI0DInB5n2zBRE+wyLt388NbarVKgIk6FaRhHq4FvcamJaz88FLILf4Iqb11DC5ok8onbtWrP3IYwwCkyQ5ELOwSaqKCBABCwlwPeExoltn6B0PX8SDyxYJibZRkJI4KJTM2SDWX/CoWHnCUkEqngBMC9FSVTYQIEG3CDJPdNZqDdf/grX/9dNommOebcwzjoBxv7CO+c+qzvqfOP03/yeVTNthUbNUDREgAhYR4Gp/ubbz+z/hLfdcrciaAtn49n2GcacAfo7VkuNeF6fffbVcdvhGi5qlaoiAZQRI0C1AyePt9eq6s/8nx1YfpR0icSlus9KUyQ3KYX/9hFB13DILmqYqiAARsIAAT7SO1DZ+4u9C/0unmTnvD7K/Al/WNVbZ6zny6Q8JFQtXWNA0VUEELCNAgp4lSm4kFW39hY+wnqfPSeWkMAX3TssTdymz/naFULX4zSybp9uJABHIkoAebxmtb/z4P8XQayfhZ3i4zzFa69wzfpey4K2jBW99d5bN0+1EwDICtA89S5RG97NnGl3/O3u4L4GhZlSw4BV99yR18yf/xnuXHp9l83Q7ESACWRDQ43vG6Js+8fdUxRybMkU/0TRRa7r121k0TbcSAcsJkKBnidTYe+9V+yJhU6xLhcNEFH3XZHXzlX8mUU8RGl1GBCwmoEebxumbPvUXKfjKKalY5vs3j8n3jPa/f0LXE4rF3aLqiEDGBEjQM0YHb+m6Lhr9yxcJohn7llZRVRT1hqnqls/dx3tfOyGtm+liIkAEsiKgxxrHG1s/e58cfPm0oQDWdCrED7yg9lWy8MYZ6dxH1xKBXBIgQc+GrhFTmBHzp3pAxvubMkVd2z5d2/aFe3nPKydl0xW6lwgQgdQIaNFdE/XNn/+DFHzxdD2FNfMD1WoGzuE/aG2jU2uVriICuSdAgp4NY1HRBVEGB3rmBUVdVrfO1Ld/8Xd6z8snZ14T3UkEiMBwBDiIOd92zd1y6IUzhralDXfPwf4drXQuBIrmUKBMOdF99hEgQc+CNaQf1bgytimd87sP1JwKSUwlbfMsY/uX79S7Xzoliy7RrUSACByEgB5rmKxt/+JdcvC5s4zBPeaZwjLX2ERFlfxTt2RaB91HBKwmQIKeJVFpxCUPZVmFebuaAEtd2zTb2PGV3+rdL55qRZ1UBxEgAgME9MiOKca2//ut3P/M2ZjkCdfNsy5l898R/GO7sq6HKiACFhEgQc8SpDDqM/cx77hmzCKVbRkQ9Y1z+M6v/1rvfuG0bOuj+4kAEQC3eHTHFH3HV2+X+//3YSvEHGNmDMEflcZ/8+fElwi4iUDa0dlu6rxb+qK1/OkzesPXfy0bwQpcl8u2KD6wKJQj1gqTb7tOqlnyYrb10f3pEeBa2M/UYIWhhsu5Hg8wLeHFHH+QrF+CnQ0ynmYmcC7ibzh5x4CFVDjCQ4D/wQ/EVJjnuMuepCD5Ygx+RMkfZZ7SfiaXhwRBtsI2TG9ARXy1Htk21dhx3a/k4FPn6hDtkq1lbiaVgRkUx1x7pzzjzi8XMVoaugsJkKBbNCnarpu/qzfe+i2ZhcqtE/W5a4TJt14v1Zz+gkXdpGoGCXCtr9xIwOE5erCcacFyHg9V8mSshMWD1Xpo7zgh2jaGxztH8GRvDU+Gys3dDEbSA/uOfaJhgLBrCueaLIqSxhmexCXpKOhc8oCfRdSZXBIRfBW9gqeylymV3UKgrh2OM90r+ka3MFlUmSSrguKLwnVh5qvqlvxjmgVPRYgmyDoCKOb69ut+pYRAzNHNnuXL9r7dLHWX/12ccc8XJIUOabFutqgmKwiQoFtBcbAOdffPv2ns/un3FCFUfqic7qk2aVrqnnmr2cSff1OuJVFPldv+1xkGWNXxvaMFraOeJ7tqudpdw5Kto4x44wQh3jyOae0jeKxjpBFuH+OF09aZITOWhPy8+KMJzNBE+IFTNPG3MfRxARP8fZ+cfX/EjCPQAfzyHzqYR9z3B/gHEQ10g6mawTTJB2Je0ymUjt0tVMxeJ1RM3SoqgTDz+sOiv7ZDLJ3QIPhHt2Uy7mK/Z8Ay/8Yv5eCT51kl5qarvfbjf5Om3/klyVMRLHbGNH73ESBBt3hOtMZffEPf/ZMfKGCpWyfqR64SJt7yLYlEfdjZ4sl+sLybxvN4yxghuXc0T+yaxCNbZ7A4/I43j5d5xwgBXpTMg+r3+0FXrGH6yrHgH/AUDhByFTzs8DPw3yDy+sBv8L7Df8M1Q58gIT1PugA3ioMneOGBH6IEf5BwU7TOooYUF0rH7Rar574jVM1eC5Z+jxCo7JLLJ28XKmZtGhZCkV/AQcxVEHPFQjHHudLrPvEXZfpvviIolf1FjpiG71ICJOg5mBit8ZdfN3b/6AZ0v1sq6pNA1Mn9/p4Z49wQjGjDZBbbMY1Ht01ncB69Edk6k8UapsjannFCAC7HTAG4TQncrmntPTY/HYNn4OJvWDZnIOZwHg9Y8CD08PMe0UcL/j33pP9wmVY9mIIo8rI8IPIcOh6TSnvE6jlrpLpjXxdKatqFktp2ofKwdVLZ9O3pt1K4d+jhrdP0hm/epgSfsMwyN09Yq/vUn6Wpv/q65KnqK1x6NLJ8J0CCnqMZ1Bp/9TVj9003WinqhvfIVWwCWepcDZUa4TVzWXTTbBbdPk2PbJ7FIhtnK0bTBHCaDwg4iDe+TKV6aE7Kj8GQJW5mFYEftOBB4I0EiLsKcXMo8qZVDxa86XtPz3I/UD+wGglMRDypTzAzh4PAi2U9Yu2RK1jNUW+J5fUtcs0Rq8TqI99JeRwFeKEGYs5BzGULxRyPPFZrP3OfPPUX14ue6t4CxEZDKiACJOg5nEy16fav8N03/EjhoXI8ZS3bgmvqKOocRL3Y1tT1ZC/kzV4zj4fXzhUi647Qg6uP4pENczwlEHWeSwEfbtL2F3hw03M8qwNE3YDfPO4Z+POQa94CccfuvEfgPZxFkoYu1sx7Wxp13CtCWV2LVDdvpVRzzPLhul5I/w5r5tP0ATe7ZdHsMjpgaj/7B3HyLd+WvDU9hcSLxlKYBEjQczivHKKo9D13fJnv/uGP0VLHU9ayLYofavAcucqAQLli2NLGgyvn632vH8+DK47l4Q2Hc7DEPSWgaZAy14pgp2zn4wP3o2jjpwrc7yjmAz8g7PGB3/j3ptVu4ScPXfQesCRF2FwXTcKJQeCaF0Yc+5pcPa5BGrvkKSEwabfl43RRhXpk++DWNIvFvO7z94iTbv6e5K2lM89dNN/UlYMTsPBrhTAfiADsWxb0lt99ke/6/s0yRL9bIuqmpT5vNZ946/VyAe5Th2Mtx/D+109k/a+cbITWzeXh1Ud6fKoHLXEr9hLb9qQOCTdY6Bxc8gPC7oUdcCDsuA5v/nv2Lvn9x4Pijq55CSz3mC7GhRGLXhVrZq4T62aulydc+IAgeOBVqHCKDkljjG1fu10OPXWOBs9HtkssGMkuw9RotV+4W5784x8IHhLzwnlaCn8kJOg2zDGHfU9a8++uZbu/+zNZiJZYJeq6B5PP/OprUvWpL9swjJw3ofctP5Z3P3mO0f/2MSy6YY4ito7GYDZTxLPcQ5zzzg/XwKBww9b1Aasd3fFRr/nb3ANnsbBjd1DcveA2FmSDxeTqdmHk4pfE+unr5MkX/13yj9szXJfd/u8apnPd/pXfKqH/nW2FmGMku4RiXnfNXfLEG28UvHWU1tXtDwH17z0ESNBteiAgIYnEW+65lu+yWNQho5w484+fFcsW5GVAlK5GArz3hSUMhTy0aj4Da1zxgryBiFuxQ8Cm6U29maEoeBDxfe74qI8ZEfCXw5Y4yFGTel1pXCmDWnlArCIcdtiPWPiaVD9zrThuyRNy/YmvplGNay6F3AIjk1uuvdsT+u9HrBRztfbaO6VJN9wkkZi7Zq6pI6kTIEFPnVXWV3I9oegt936B7/rOLVZa6snA2U96DrvvSsE7ojPrTtpUAU901OntD3zU6AExj2yco+i7JuO6shVfzjYNIftmTKschB33ucMauxFBYYf1FIyQxwQ0Ofh0DlntKkTKGxXTNooj578hjT/laXnsOY9nPyB7aoBdDl6t+fbrxT03/IgbTMjWe/OuZf7FO8QJP/ix5KvPm8+RPcSplXwhkIOvjHwZujP95Fpc1vb+4WpmkaibScg8kiZM+/elUv2FjzozqtRbhVSqlXrbXz7Fu586h4fema+IfVXoVs/JFrPUu+Xslfvc8SDkuM4OFrsegujHIWHPQe/wg6/gPnfwCGiBMbuEkccslaec/pg85jzXP0N6cP1stuH0FyH73wh8AcymDIm5Wvel3yoTv/8jwVtPAXDZAKV7HSUApgEVOwkIsk/jWuweSPzNtZ3f/rkiZ7emjkFAsqjLevezZ3K151lBqY7aOZ5U2+KJzlqt9f5PaxsuOYuHVx2lCH1V2Hc8C77oy2AeWVzrZnKMCb4kE0piAxZ7EDLjoCve4jV29A0kIQs9ZqyT9dZJQuSxSWrbipMSr117kTTlnH/LY85+wo3zAl4uwWj7xzGi1DFCjWfXQ1PMIYRBq/vyb5SJ3/ux4CExz44o3e00ARJ0B2ZAkP0q10HUoW214Vu3KnIskFWgHMQtQ6KVeZIWqoIqXSXoXFdlo+1PV2obL/0Y7iOXWX8lplnNarwOzJktTZoB7wNWsxCIM8mrMhF+G6EAzC8KO/6btVHxZm4cHYQdHkY51DaBh/87QWtdeXz8tWsukw+74h65bvFSW8aeYiPciAUY5B/AxEHZlP3FXJzw3ZtJzLOhSfe6hQAJukMzIUh+sNSjfzCt1J1ZijpmJdX6KuEgElfNp9b11Nna+guvEcIrjpX0rjpzrLmJ+XJoFnPYLFrtprAn4ARWEPayONN7A+COx0QEqPs5Ena02MNtE/TtT0zQ2tcsTCy//lnP3C/9XPBPaMrhaFOuWjA0RVd7qrOJHXx3zfzLvxHHf/dmKY9iT1IGRRcWJQFXCUCxzYAgB5Ig6vei4ZWV+x3X0aXyIPxfliuK1syA3v/2Ar3p119n2685nsX3jBMxF3aWFpU1PcvTWiQUdjha3Qsns0ZiTO8rHUhSY7GoI519FjsIuxTcM0Xd8J/P63vfPjG56fa/eWZ99VbHCQqSzqXScKYBg/ss89ov/VaeAG52WjN3fEqpA9YRIEG3jmVGNYGoqyDqf9Q4F5Kwpu7JxP2Oe41L5mwQpVJHj3TkarAMoo+/pm+8/BMMTjmTRAMPCycxz+jJ2O+mQWNckOGtqCzKpECS8f4SZqCwD2Wey7aN990/IOy4l91QpL6GOcaq3383/sz5Z0uHX/MLZcxZT1ncXOrVSaURsfzI1QyfdHi/SafsC4Cr/eIdEABHYp4OPLo2LwiQoLtgmkDUE6alDhlG1J3fuSWdNXVzmwIev1n3of8J3tqQU8PROp85U1t3/rfl2MoFhhYpRc+6FfnrnRqPK9s1E9DgAS0aE6pgqnF9vbucccw8l6P9KuaxsuD3kYxIBd/zzkms79szksu/+bA077ofSb4RHXZzEiTF0ENr3tGSlb0S7JDA0/NSKaaY47k5ddfeqUz+4Y2CUke52VMBR9fkFQGQAipuIIDud2n05/4gTP7pd1TDH1VSfNWSYduy5jv9WVZ27AonxsFje0YnN19zN9/yqb/y/ldPQjFP64hSJzqd722i+QyLyKI/weRR3Uys74PVFgykyN3AcE7haAKIvO8eqW966HPJZy55SWt+9OLctXjwmkX/1K3CqGvvEvFo3BTKu2J+zV3KxBtIzFNgRpfkJ4EcvdfnJww39Bq2tHn1vfd+QYeMch7h0NHvCm65kcbvlmf+4+NC1eI37e6/1vH4eRyOiBXjm2bBIeFetOayzaVt9xjyvr2hg2Dg6FajsxzyxEPGuRwXFEj0CMiB0l594hkPK0d++weSf1Rbjpt9T/V6dNd4Y8f/3SnHnjpXjRy8ZTzLXMQjUOuu/p0y+UeYm50sczsnitqylQAJuq24U2uM63GP3v7QxcbO796iSHvG6bBWOJQNCycMg8xEtMzlBW+JU375danqhDdSq9maq3CtXG+69ZtGy11fEvT+SqyVhNwatlnVAha0jmvrPeUD+eFzXFAswf+fNKrqG5Vjf/R/ypgznslxk+8V9UjDJN54041S398/iQf37J+caCj4LZn0JMTx3/mpPO6rtwueCkdjTOxkQ20VJ4Hcf+qLk6slo9bC2yazzv98lHc8cDmLbpqN7nU1Blnhyhe8LY/+7H2s+sNPCr5R7ZY0lmIlHCLY1R3fuE2JvXWsriZ8aJVTcRGBwRzxemeleWRrrtbWh0ZsfoHA/yml/qB+2Kd+o8z5ys8lufQQNrO1rODlMmD0vXayvveeq3nf0hM9crACMw+qwthmofacJ+RRn/oLKzliDeR+oBRG1qKn2lxIgATdhZOyf5cgM5Zo6HG/yJNwBidscBMV2MPk0QWlLGZn16EfHn3vHz+HZ7sz2PMOJqBIVrmdM5BmW4bI9O4yiIQvy8n2tvf3ZiCCXElqY+Yt9Sy89Wq5bOqONHuc1eVcDfsgKb5oGEk4hwaeTBE27wteFYScNkxmRZZuzicCJOj5NFsO9dVQe6r0nT/6odz5+2s0NeklIXdoItJtFqx1A3LC6x3w/pVrUx1bGDDXDVZW0uM98bdXSKMhWJMKESACthEgQbcNdX42xEPrZ6lbr75Xia5YqOmGRGKef/OISWj0dnDBJ8EFb1Px+sSkfuTXfijP/PwdklLiqnTENiGgZoiA7QRI0G1Hnh8N6roqwolo5xpbr75H1DrqYa2cnpX8mLoD9xJWa7SOasbxeFYbinmam0fSjSln/VtecON1kn+krVHwNgyRmiACriNAX9KumxLnO6RrUR9v/fOV2vb/u0MSaK3c+RmxqAeYJKanAnLCl1pU4fDVSLigXT9hk+e0v54nlUzaOfwddAURIAKZEiBBz5Rcgd7H1b4KrfHWb8p7b/kunYhWmJPM4UhWrRMO5rNph4IIi+u81NfpPeOhM6SaI9YUJlUaFRFwngAJuvNz4Joe6PH2emPnt34u9/7102qaebJdMwjqSEoEeMzH9LYq2DhhT7JI84tGgV3hZz5wjjz6lOdT6iRdRASIQFoESNDTwlW4F+uRHRONzZ/8hxxbfpwK56tTKXwCPO5hWls1phu0bbA+v8GNxb/6hDz+/AcF2Ud7w20jTw0VA4EUM4YXA4riHSOPbIFjMi94VIlvPJwOVCme50AAPVVGdzOtFYLlVHu+CuIxUQi88fW/a3q0lKuRvwhKSbx4iNNIiUBuCdjzKc7tGKj2LAjooXWz1LXnPCarO6eRmGcBMl9v9ahMAlE33e94xroNJRoTWWD5D36vJuEgn0TwXslb7tgpgTYMl5ogArYRIEG3DbX7GtKDq47Q153/qKw1TsY82FSKkwAexyqN7gFRB0s9mrujWPenG40JLPDOz29T1b4qI9F/q+ilPOvF+fTRqK0kQIJuJc08qov3vXmsuvZDj0lG50gS8zyauBx1VZB0OIa1hxkdYKlH4cQ2G6JrouBsD6y753tJHU7qS/b/WKTDU3I0u1RtsRAgQS+Wmd5vnLz/rfnJdec9KuudI/GcaypEAAmIis6EEb2QVc5eUfev//M3dM4FrobgrPKyMM0GESACmREgQc+MW97epQdXH66u/8hDkt4xisQ8b6cxZx0XZLTUe5mBog5b25iQ+83qMYh19228/7qkUhLWk+FfSB77TmvLGUiqmAg4QIAE3QHoTjWpB9fP1Dde8m9JbZ5IYu7ULLi/XdEDlnp9P1jqcMCfDUewIpE45D3wrb7rBk30JrgW/yVtaXP/c0I9dB8BEnT3zUlOeqSHNk7XNl76kJzYdhiJeU4QF06lYJTDyaNMru9jGlrqSXu+JuJgqXve+eVPVaW8n3P9bkGQcu8eKJxZo5EQAWbPJ5VAO0pAj+4eZ2y89G9yYvNsEnNHpyJ/Gkcp9SWYXAeiDsevmie12eB+TyYFJi//4V2at6IXevCv/AFGPSUCzhOwJ++j8+Ms2h7o8bZ6fftX7hCjK4/RaWta0T4HGQ0czlNn/gSTaoKMwdo6wz/bUOCgP5Z89St/0VpeOt2G5qgJIlAwBEjQC2YqPzgQroYDxq4f3SD1PnG+QdHsBTzTuR2aUBJjUjXkfhHhIbJB1Dl4B0RVUuIvff5Bvfudo3M7OqqdCBQOARL0wpnL94zE0JOy3nLXl4y9v78GzjJn+CVJhQhkREDkTCiLMLESdpTBf9txSpsBD6wUT1aoS7/8N71/86yM+k03EYEiI0CCXqATbrT98+P6rhtvkiRY+SQxL9BZtmlYYJULksEkEHSxLApr6fa43vG55Z3NM5Jv/fDXeqxthE2jpWaIQN4SIEHP26k7eMf13qWL9Z3f+6nEEj5ytRfgBDsxJHS14x71qjATYF3dFtf74DiNxuVLtPW//Q5EvtP3lRNzT23mDQGKcs+bqUqto1p420R98yd+KWqto8kwT40ZXZUiAbTUPUkmVQWZplUyZkPkOy4XiQITtQ3/uEasmrEJenpvir2ly4hA0RGgN94CmnI92V9m7P7xj1lo5dHoFCVXewFNrmuGAqIeiA+sp4Mb3g5LHb1MsmF4Em/d8lOt9ZXTXIOCOkIEXEaABN1lE5JNd/je332Jdz54iSRyES0bKkTAcgL4XMHbogRr6WJ5ZGBvug3PmgaiLkbDNerKm3+uh7ZPs3xcVCERKAACJOgFMIk4BK3jiXP0ptu/qohJLyWPKZBJdeswzPV0CJKriAysp9txNNsQi47tR2jr7vy2W9FQv4iAkwRI0J2kb1HbPLJ9kt74s+9Kemc9HYVqEVSq5tAEDBB1jwpBcrA/XVFtcb2b+9O5rujbn75U3XrfNTRFRIAIvJcACXoBPBFa06+vFyPvzLfTUCoAbDSEbAmApS4GEuB6h61sNiWdQde7rMdLk2t//02tY9nibIdA9xOBQiJAgp7ns6m1/vUTRud/LpUE1UNb1PJ8MvOx+7CGLqLrHYTdroJeKDHcMU5d//tv6Gqo1K52qR0i4HYCJOhun6FD9A/ONp+rN//mqwrvqSFXex5PZD53HbeyKbqZdAZd8HZEvZtxeQaXhJY3l+hb//ilfMZHfScCVhIgQbeSpo11GYYm6Xvu+D8pvv5wssxtBE9NfZAArKejhY5Z5ATT9Z57SDps45D0RKm66d+f09pfOzn3LVILRMD9BEjQ3T9HB+yh0f7vy3j3U+eITFNoi1qeTmKBdRtd73g6m11F1ThTwnshkdI/vqDrKiXJsgs8teNaAiTorp2ag3dMj2yfrLf84SrFgKh2LQ8HQF0uPAJglQ+43mE9XYGH0qZT2Ti43rXGl8/Wt9//hcKDSiMiAukRIEFPj5crrjZa7/u8HF1xLKcjUV0xH9SJQQLoei+JM6EUrHR0vdtQMOrdY8TLtW0Pf0rvX3+4DU1SE0TAtQRI0F07NQfumN71zJm84+GLRSHh021Yq8wzPNRdFxDAADm7rHQcLrrePX1bj9C3P/gpFwyfukAEHCNAgu4Y+vQb5mokYLT97ROSvnMyudrT50d32EAAXzIh0YxYHoMjV2F/mQ0vneYxq5ru1XY+c6HW8r9zbRglNUEEXEmABN2V03LgTmmdj1zIe144HQ44F+nglTyauGLrKm5lw73pXtjGZlNJgpXujbVN0BqevohzTGNHhQgUHwES9DyZcx7bM5J1PnipInTWkXWeJ5NWxN0URDg7HUVdsWcbG6LWwDGgN71wrrbzn58uYvQ09CImQIKeJ5Ovdz5yidH9whJDpwSveTJlxd1NtNJxX7o3advZLRrs3/Rr4Wqt8aUP64nu6uKeABp9MRIgQc+DWeehjTN512MXeDxxP52klgcTRl3cR8A8kQ1OZrNjLR0bTagC400g6DsfvIKmgQgUGwES9DyYcb37ifOF0OvH67TnPA9mi7q4jwDuRcdtbD7YxmbTqrYBwSU+Zvj0pjdO1yNN42g2iEAxEciL7Ep637KFPLRmHtd6q0TPiHZWcsQ6qfLolcUwUUZo/Wx9+1fOlCVNUcF7SYUI5BcBPLwlzHjMA5Hoki3CnoDPCW995Uyj+X8XAKvf5hevzHqrxxom8f5V83l852RBKg2zwMwtUuXxrwsSrnlQKRYCrhZ0reUvn9Sbb/2WvuaM8Zxr0FcuGAyOdxJkLbF0TFCsPH6pUH3ai1LlqS8KJVN3FuKkGb3Pn8H6XjtRs8nCKUSGNCYHCeBaekkCcr0nGQ/7bMkgZ4B/PwDhePE9K07So3sflAKjWx0kkJOmudpTpfe+ehLselnCe186TVtx1GjGVYUxA7yu+B0p6YZS3aPt+sk90sTv/EwQJHsy/eRktFRpqgRcKxPJDZ/4K+t8+GLG434Bezm0n3Wox/BnA4JaGRzRwETY+Ood0yJWLXlerD79eVZ5wlLJU9OTKgS3XqfD2jlY53cqsZdOU+1Lke1WHNSvfCUA+sKjPqa3Vw1Y6TYUEb40DEnXleNu+j/PzM/9zoYmc9oE15OKEXz7aKPnuTNY7wun88jG2UyP+zjTJYHpsvkdiWW/70lzfz5TkkLZ0W8r8/57rqBU9+a0k1S54wRcKeja5qvv1lv/fKXAVE8qhIb0Hpx7ugDHPXHBmxBLD18vVJ3xrFBz+vNi2fx3BAkX8vKrqI2//irb+Y1fQpgPDCq/+k69JQLvISByprXUMh4BK92mEvCKLDH+Qw94F930ZcE3osumZi1rhoe3TtNBvI1u8NKF3jyO6f0VXNfhjcgQRXB87K/fh2qUg2NTqDzuTWXeKycJElnqlk2QCytynaDr3c8v0dZf9IjIw2XZJE8xX07B9QTPPedyZZ9QvvgNseaMZ6WqJS+wkqk7zH8T4FvGpYVHGsZpO752lxx58lw17tJOUreIQKoEwEo3wn6md1QxptsTi2ta6R4h7ll887XK1Cv+nGpX7b6OG5gEH2Q62VHP+5aewLufO8Poe+k0lmgexwwUcPiqGhTwTPqGX/KG4EmIk37wI2Xi936aSR10T34QcN0aur7nzi8xIxrIVmnhIYb/YZgtLCdpPTWs54nzIFr8XMwhxeX6DrHi+Nf1lnueY5XgoveNaxZF0XDTOpPe/+ZJRu9Lp9LCV358kKiXwxCAj6JYGme8VwONSsnxljVSjHgPiMyX7Noyl/OkJAgeWKJzvoCVLZq2BrjMjejmw7TGW0/j3U9/mIVWLhA4utHZPg+6FbsD8LtUZEmvASc0QizSzwVBdgUH52ei8HrgKkHnarhEXT51oSQYUi5czENvuYLWMYJ3P3IR733kIp3LKrjn1/GqM57Te155Viibt0aQAlH4COiCiBto7S+QFKPC2PnNkz2+aIkKPaFCBAqDALxcl8GZ6UmM3bLHOZiEhTZ99+OXaeMWvQQM/+sURwPWwAUI7DViuybpLXecbq6F9y87Tmb9lRAMtG/tO1tD5lDjE2CXkN798ilwzQtOcaB2c0vAVYJuxLaNH4jUtKcY8EESmKaw8Or5LLJ6vrj3599JGmVBoWLRm+Cef44H1z/H/BMbmeRNCKLHvsTUobcWmetmjrxO2MOeWilCAmb2uBhjfWUg6PZ89WD2uIDeN1Lt2j7HTkHnhiYaRtIrqj3VWu/LJ+tbr1rC+145RdaaJuCxx7ACwXBJ0c7UEuZOofj2aSTohfvZs+dTlSI/keuiDhEcKV5u2WVmNChGzZsCHyoX+547Sww+dxb4qZgqTdopjPjYP3ms8feCf0KLZY0epCL8ItB23nC8R9kzTgVjhgoRKCQCuHtKhGQzRn+JLVvYkJ2eAO92438v1btWvCTVHrs81zx5oqsGTkU812j9w+d5aPlxMnyP4HcLeh3hDBnnCny3ch23/1IpVAL2RKekSM/w1Hdx88xFZ4v5wYNeqGCTC4ldk+W9P/2++vax72id/z2X62pOmemhtXN57wtLmH3+AGdhU+vFRQCt9PLwgIlqUzFPYuvfNtfo3nZErpvUIRGUuv78x8Xdn/2zAGKOQq6CGY4pm7MJ8rWk37ADSPCOKrg9+ZawKZBKcipO6TKS/BPamW9Mi30f9eF7iB9CFHbJ6BhhQPS91v3M2cPflcUV4XVzxcjbx1Ka1ywY0q2uJiB6NUgHa18CM/w+gbAciLBfdawe76zNFRwe2TZN33Dho0ps2WLcmYJi7qoiBqJS5XFLXdUn6oylBFwl6DgyadRn/6gzb/zdME9Lx5txZfiGLYm6zLd/6S5wv4/NuKJD3MgTHZW8/7UTJdiq67ovg1wMmOosWgJCOUR72milJ5KQ3Kb5qQt51zsLcwGdJ/tLtZ3f/4miN0xDA8BtBb6/uFi95AXBN6bdbX2j/lhHwH2CPvqqe8WyBSvNXeS2r6YfGiyKuiI2j9c6HryM6wnL2RnhjfNY38uncPuMF+ueJKqJCKRKANzuEqyjM9E+ExZic5iPxyqNvqbJqXYzneuMyMbD5f6HLnXjeQsSptD3TWiUJ914Qzpjomvzj4DlopQtAjxMQJr5h88agXmrId+CYT6MLhJ2A7bB8Pb/XAqnTUCorrWFh9fMk8WmieRut5Yr1eZCAiDmYsDejEk8CYlmmp/5iN6/5TAriXAt5jE6H4I01VbWml1d+J0pwbc7ZJRjujK+UZ72q68JJdO3Z1cr3e12Aq4TdAQmlc7c5jni4QvEuo88pkujWwzIR6xAbKYM4o4PqZMCjwFzQnT9EUxLWpodQ4fMcJDmcQmDYDwXfS+4/fml/uUtAQyOgy1sdrrdwRVudCw/yejfMcNSbIbqZXgapH0OhwN2X4TvRvyOxO9KyH8N+2VqO42y494QZ/7pM1L9BY9ZOmaqzJUEXLuFQQhMagRiF+ldz55hdD/+ETW4cgFTu2vwCFVB66tSYLc6foBQYO1cb8YgOUlM+PBEJ0tLfNd0IbziWO54jL+lo6LKiMCBCeCLsR/cXQp8iJP2HNhinsImy2Kyr2kqLJkp4A20ZLUb6oXjFiIldkexo/WNIi7gtjj43tBZaciQq3oZ/IhVM7cINec8IYy45EGJjlAtmk+hawV9aAak2jOfg//GH6b3vXU0D755HO9fvkiL75hqJLtqUeQ9cqTUTPRqg8Cjd0DjpSHZ4jzwPLJhjuLpqVVhRw8VIlAMBASwztHtbiRhT7pNxVwya3ryImPcSc9AkxusaFaE7WCmkOZ4aRC/e1DAUcixraTmSehiTbfore3inrF7xLJjVuAhLAx+JKkEog4fgAuvsGKIVEeeEHC9oO/PUao85m34M/78RleDZawfTiDqX7ZIDa06StDaR/BEZz2HAw48SiyA95nJHCze/4kufwZBe4IAR7ZaVPTo7jH69q+eLNmZNsqivlM1RCBjArgnHbMs98PH1aZ8Ukn4jAm96xbwSCvuVLFE0OHo9SQrO3aFGHnuLN1CDxvqting+J0DTowkpMI3pNou0VPfwT317VLZkauF8oUrWPnCNyT/uL2MPZXxVNCNhUEgrwT9PeKulIfgz88O/kA2qO5qHly+kMGPGnzrGCHZOtpItI0UeFed4oWr4IO2T+CzmDsBg/TqL/23IPmty+OWaJoshJct4iToWcwM3ZqPBIQAbOnAEz1tOifddLuLoqyGrIt2F2Rf0giufMJou+16UYgFsjmHAsXbNBrwjDX4PtBYRZ+mjGiXvCPaxKrp29CYkCsXLhfK5q5jDNPTUyEC7xLIW0F//yRK3poe+LunB3+Y1r/qSDn89tE89M58LbZjKo+3jmbJvaMVOVSOHxYUeHybTufDhy8GSfnIVXLt+Y/D+pt18hvZMlOWO0eoeXdiO32UiEB2BNCNLPjB9AzZ6XaHVLDNT39ED+14TirDo5SzL0Jg9kat6mP/VHr+9DkOvrtU19OHotHRUMCSVL1xQx69V/SNbuHeCY1i6bw1rPyYt6SyY96CFwf4hvhD9p2lGgqWQMEI+vtnSK44ajX8Hf4wXQ2V4tGEDALr1PC6I8Rk4wQj3jKWa83jPF44nAVzuaPAH8Q9b741Q0y7oUzfKk+57TrJN6rNqieCJ9ortR3fWWjjllyruk71EIHsCcBnTyxJMN1GQVd1OPWt653jeKRtDAzAGkGX/XE92vQjNbZ9msKXnoQHK6kHcL/vE/BBKxwzyqni6BbRN7aZeeEY55JZm8w8HGVHvy37RkISmL9nz5hqKBoCBSvo+8+gpJRhqNkrgz+whbx5lBBedbQBa+8aWMcsAScgxZvGS7x1tAhZ2tB631eAUDLmizH/scuFcd++Rao+BeuxrBjJ9tFG//KF5G63DClVlGcERHC76/hGa9izixaTzAS4VqLH+mqsRCUFxjfrke2f03Z9/yes9+VTFaWrztwMM7QhBocH3y1JXt3NPOObRB/81E3fykrmrpXK578jlM7camV/qK7iI1AUgv7+aRX84/CAAjwb2TwfmYfWzzHCa+caYL0bsYapPNk+ghkJLxO9Cck3slUcAR+2kZf/E3LNN1n9iPB4y3hJ3z4dt51QIQJFSUDUmeDRGI9bmtrhkCi5JjKje9UxerL/BclTEbSKu1QybQfXop/R2/95udb7ysk80TKW6ZES2FtmiN4R7dwLSV5K52zgKOKlc9cKYNlb1TbVQwRyvNEi/wBzNVxixHdNZDpEykv+qOif2pCrDx3X4pK257dflzu+fSttV8u/Z4V6bB0BvaecGT2WJ188aAc9sPdLrRm32X/KvZcJlbPXWzeS99akh7dPYlpfDcbhMf+E3YJS3Z+rtqheIlCUFvqhpl1QSjF6faMtj4baWcth2x0dlWoLbWrExQREiPcymH2CruJhS5Hd08HtXpVLLFLptF1QP/5QIQI5J2DPolXOh5GfDRhaTx0PvjOf1s/zc/6o19YREHwQGm5jZCicvcY8oiQZ8d6cHadqHR2qiQikRoAEPTVOubkq0TlCElrGYnQ9FSJQ1ARQzGEd3daiwopjzzsLDRUz21AhAvlPgATdoTnE41d5bNt0ycPFVPesOtRVapYI2EJA8Nl7brCmcabvfe00I9Y+zpYBUiNEIMcEaA09x4APWr0WLOMQWQ+poKgQgQECGZ88tl9sq8VnBtk5NSIIup2bPTT0jPXvOIzH+yvtHCe1RQRyRYAEPVdkh6nX0PoreGTdEbZ+gzk0Vmr2fWK9T39RffFUIfgx4MAuTH8KIiMw2FIFfx7Kby7sl+cc136ZCIlREKr5G/4GfpvvA/hCgGlU961FDza0v8jblDM9kzkX/fYKuoH70UXDr+s6nN1IhQjkPwESdKfmUA9V8tCGw/F7m0oBETDnE88GHfyNvzBhigoJCWHvM9Olwd8iZCdEAYffeDmewGmKuCnNA2K+v/gOibJ50tbgHz7wG4/SxDeCAWEXUNyHBB5+i7Df2zyuVIHf5jrP/u25YA4k2I8u6wMvNnYVnI9w42Ro7nW7mqR2iECuCJCg54rscPVqPbUeX6RUiw13If27qwnsE9VBAVdlxvEnOSjgGvy3jgdWo5ijgOJ/D4o3/t2gNltlOO+Lx0CrHfuGVrz524BmB/8so6hrpngyODRQMP97yLIfFHmrOpTm5Ake1VZB55AGVu9cdoIe73xS8tXheRBUiEDeEiBBd2jqeHTnZPCs7ssK6VA3qNl0CeyzwEEc0bpOgLcWxNtIwEdpyAo3wOozRRxd6QeIO93fsrbaQ7N/fSjKGjrl39uI+Q6BljyKPlry5n/DbxB4wQsCD1vIUFgZCr7pKYDr7RJ4PPMITlS1q2g4xO5185kaxP3oJOh2gad2ckKABD0nWA9dKVf7SvRdN0/H9VIqeUAABXhoORqFO+FhBqQpNcXctLzRfT5ohe8bzuA9GQe6WcRlf9f//lUOij0eWzrkzefvc9ULaL2jwMPaNqZmNV8CcizueLS4ncU8Url/91SmRkvtbJfaIgK5IECCnguqw9WpRwMcTmWigLjhQDn470MijmvbKN5Rnyni5rndHxBwl4h3urgOJPY4tsE1bC7AePetxWO+dRB3OEhFxPTj+6x3a10MgsfOOHeYSlij8PJ4GdeScDgyFSKQ3wRI0B2YP0OLlHA8BMbe7y4HRppnTe4v4ijgURDyOHzPoxWLFjj+mKZ6ngp4qtOxv1dhn8BDTAC+0ET8zJDKTMtdDMRMgR8Qd8SSvbgLGLBnVpZ9XakOVxIlODoZgxuoEIH8JkCC7sD8CSzuhyNbx1NCGQfgH6hJEDDT7QyudB4GwYqBiKv7rYOjuOxzu+fxRu9McQ8JPAo2chkK+osAJ4xM92kg7nEmlIDljlH1Q+vumbSHbn0M0LMz0h2WTYxI4yTo7vJMukz3EAG3ECBBd2ImjERAUkJlOh2c6AT9gTaHtn9hYFsIRDwYYAYEtZlW+ND2MfMavLgIRfxgMzPEA5CY2+7Qe6FCTEHEx4Re3XTHC+VRsOAxYxJelK6lzZkILwmGnYKODobe9fN4sv9xwVNhY0iec48/tVyYBEjQHZhXnuioBy+fQB53B+APWtpohXMQcR4DqxyFCYV8f09vujrkwFBc0eTgCsRQXIGelJkQguO//QkmlEWZiFY7Mk9V2LE+dLsn7BudYXB4oWuYaWhmYBwJun3oqSWLCZCgWwx0uOq4kRSNtr+OJqNvOFIW//ugqHCwJI3+0oEAt/2yse2z2i1utuiqwyBCSKCDSxcMXpoMsLZR1MVyOJUYI+VTEHZzT7yNxTwcKdIyHvYe+mxslpoiApYTIEG3HOmhKzT0hM+I7xlr40mRNo/QZc2ZQg5rpMESxuFQLQMsyAPuDXdZt/O6O0Nr7oO7AXRYc0f+QmmMSVUhM6nNIYVdtveAAzDQIQCyfRQcmESCntcPHnWeBN3mZ0Bgqiwk2keQhZ5j8JgPBTKzGSEQ8SB4UlHIU7AOc9yr4qwerXaYC1ziMMByF8tA2CsPIeySvYKOwak83lct6BrldC/OJ7RgRk2CbvNUcl1VuN5bRYKeQ/AgICjkem/JgJDbuAUqh6PK/6rxhQpfstBTEvQxsTQOFnsYXPGQlW6/ly1BQYW1b9pwj4MicoUbOn0f5v9TVtQjoAfY5ukX4RtNV/sqSdBzAR7EIgxr5L1lA1ncqLiTgLmtTYKXrpJBix2Evbp/YMsb6rjN61H47uAR4dlxJy3qFRFImQAJesqoLLoQ0nAJGgm6RTT3VYMCrneXmxndqOQJATMZDcQ3oMUe8pnWulgZBq13QFoFWBLgtCaTJ08OdfMgBEjQbX40DK7JhtZbRUllrAGPaUr1XhDyIERV0/exNVCdqAXyAeALmQ7r7KYb3u5tg5gojlO2OCemntq0jgAJunUsU6vJ0BRBC5WToKeG66BX4To5fPnr3RUD28+oFAYBiIjXOyrT27tuxcjxGUr21lpRFdVBBJwiQIJuO3lD5EbMT7nHsgAPe8j1rgpI0Qp7yUnLswDp4lvt9rbgB1ILlruYCHWNCAxLgAR9WERWX8AFgWOOUSppE8Cc272l4GIvG7iVxDxthHTDwQkYarjMMJKCKHrofZselLwkQIJu+7ThplwS9LSw4y4mCHozuioHMrxRIQJWE0AJVyOlgmFAHmBm70Z4q8dC9RUtARJ0m6cekmIKGpwCQuE3KYKHtU2Oe8pBzAs57mDA2WCFYQi8UkRLl72PgB4LQEAGCTo9GHlLgATd5qkzuCEpChzMQiezHJo8WuUapAzFtXLMC77/Gd02z5kVzaHMHmiFAP8WDh9lkPHc/ME/G/Bj7ujC3wdbS4bK8OqBqwb+G39gdzf86Obv97c3JPQH7okVo8zjOszT45JwYg+s61AhAnlKgATd9omDNXT8yiCn3sHJYwQ7HKJiRjvjKWh5JOZD9vH+FjfKa5wpLMGVfeKNQo0CG2R+tovXs2Zew/byatbNSliE+1gUrg0zn3mPOijdQ8DgwFKmCAYLsCTzC/ijsnIWY7VCmI3l3Wyc2MUmCO3w95r5aoCPGwq8DOf7wW595oVeYE/e9Qm8+wJh+8fBVQ3qkNKGfGeumhLqTFoESNDTwpX9xQKok47fpUPHTmZfZUHVwEHAjb4yZvRA4NvgUaduHuCQ5Y2/0fJNMtn8UQXF/B1jHtYs1LHVfBJboU1izUY169RLWAjShifwHG5YRxiyrvevC5+P974cvJfCgLWNFvzA35vW/OBvtM0NqFWE7Gd+UWMVUpLViiD2IPTTxHZ2jLCTzRL2MMilYgq9F4Q/AOeV+qHHQ4/lkKfAzewt7Zvp5vAmgBr5ziwFS5XZSYAE3U7a5heuqOuGqIuCuVZHZT8CfHAPspntzaVW+YDoDjit0UUeA3s3LnjAAvewPqGMbRPGsAZhNNsp4e8xrEmoBwtbGnCFe3VYRtDAq6uzgKoyv6ozDdde4LgvFHZUZPN3ygWuPVSkv+lGZqwXznvv4RVsK6tkz7Hp7LfsJMyvyspklY0Ug+wwuY2dIG1hi4RtIO46jERlpUKClcGoYFf44BLAwFJAIRdB9MAbjUsfvEIGT2OzjAAJumUoU6wIvjAEQVEFlpDS+epOsfb8vAzdz7i3HFzsPAk7+lz2nTq0so1w4yDgEcEH7nA/2yvUsk3iBLZBnMw2w28UcizgY9i3no2u7SH3tqmHCi4hiEzwDUTro12vg7Drqmb+aCD0XB8QeG5ACtQsDynBJk3b3dRiDgL9blpVeLdgTayU7U5MZ0+wmZCfR2IVIPJT5U62WNrGlogb2Aih3xT5SiFiuvWxLnyRKUhxl3xxJth81Ft+fmKp1y4lQIJu+8SAWoGgMwZnLxe7ogMKDtYjHqjCO0HMMVuXC8R8QAQxuIyba979sK7dL5SwXqGUbRXHs1XidLZanMp2iqPN7g4FofnBbZ1SMY3xdydfkiUmKwMfRfx7QzOYllCZlkwyXQOrHoTdwEO707Leh+8JjhPHKA2urcO+LQbvFGyDWsvWsBHsN8IprBTOJj9M7mBnymvZicImVinGWTWs1VeziDnuoWC+4Vtz+RXmy1ZpUEA3ChUikKcESNDtnjg8SgpcexDTVNwFv0DNPOxwMhqsmZumqMMe3YEocXCDw//3gvscXei4/r1cnMXekg4DS3wS0+GUMLwGXdEBnqKApzDT+7vaRUlk3hKf+YN/r6K4J5JgvYO7Hlz03HTR4wNkPTCsUYaHc8CSB28BCPx6tYatZGewn4pnsfGefvYheZ1pvY8UgrA2H2J1ENqHSwr48oO+ibwsuGtAKYcj36gQgfwlQIJu+9xJGpdK4Uipnhrbm3ZLg2iZg2vdgDzsHE7ZctIqRxfywBYvblrinUIlawDLGwX8TXEO2yaOM9810G3u4SpcB84VG8r+Aq/4FOYBFz3+nZYEKzoOlju45g0dLHf4MS13jHDLQXlX4JMmh/a4j93DjmN3iyexUXKIfVhZy5ZIG9hocM2PFXvAcoeDVfBdbXALXg66lJsq0TnkrenKTeVUKxGwhwAJuj2c97UiCrImKJW9otY0oSh9e4NirqOLPerNhZGZ0oyiLYlbuCKwNWyPUMVaxDq2SpjGXpGOZOukyWCJixAcpjG/hVZ4Sh070EX7uehlr4cp8GOKO1jtyXjCXIM3wHJHcRdyJOxD3ZJg/gL4UgMvN/1Jmf0peSz7g3A8m6D0s4uUt8219wkg7JPEDuaDa5Lm61IeWO34XEq+SMZzRDcSARcQIEG3eRJgZRb+V9GfA2+pzSPJoDmwgoyEhxkdYJnHQcxtLgNrxgNJV/ogGKxRHMFWg4i/Js813eoRwW9a4QOWuEsLBssNdk32eZnih13lGC0Pwq6CwOP6O4p7Lq32ITLikLiDwHcmPezXiVPYXfIpbLFnJ7tYfhu2yLWx6fBTw0KmxY5LGamVLCMBU2vkfVfhEoPdJ8Jk1FG6iQgclAAJut0PhyAbglLV617FyBEQFHM4Hc1AyxxE3Zo0p6n1Fd3pQ9uv9go1bIc41hTyZ+VjwKU+lokgkrhVq4THUqvQLVehuGNQHqy5y6UBWHP3MzWWNIXdjJrHMPYcuuP3x4CWO251w6X912Pj2YvCdDbR08suk1awo+RGdoTUzMYJ3bhDD0gP97Vj/+uUgTsKRNqD7pZHm/qRGYHhPlmZ1Up3HZyAKENEVWVfsQk6x8xvXXA6JVhydok5Cjm6zdEybBRGsjXSFPaqOI+9Js1jXUI5uIQhy5obXOoWfF6G1tw9AbDa4UeHtXZ0x2O0PIq7XcKOUozb3GBzH+uEjRy38tNZiaKzC5VV7GR5C5srN7EZQqvZHUy844aCfU5ClKFCe9DdMB3UhywIuOMTlcUA8u1WUVKShlzdkw/LilaxxUQxGrjZGR4yZ8O2NBRyDGJDSxD3h+MWMxTyN6XZEI9dYmZEK803azzFyRgSdsmjsIAXKICgm+vsGClvo7BjdyWIli8T4hCZL7B/aPPZg9ICtsSziZ0lb2AL5N3scKEJYhUGsuu9p9jscce4A0PyRQXag57iU0aXuZUACbrNM2MwD4RLj2otCgsdTB8eAWux0x4xN7cSg5BjzPp2YRx7XZrDXpTms3dg3zhmcvOBdJTAfxVFGXLHg7D74QctdoyOH3LHZ5uwJh2G+IJVAjnn0R3/TGwmewZ2D5zq2cI+DHvbj5F3sbliI1jI0rtr7DZ73CFDLuO+6i4OAavpjIuuJQJuI0CCbvOMiJI3wX1j9xS8hY5Rw2CZ67g1zYbsb7hGjsKxC1zrb4iHsxdAyFfA1rMESLwPbHXMVV6UZTAZDVrsMvwosOSRjA0G0KHFnuOo+P2Zo07jQTIcgg5fjk9hL4kz2Gkg7B9S1rHT5M1sCmszD7GxOyreFPTS0c2CQlHuRfkZKaBBk6DbPJng1uN676t7bW7W3uZEEPMYWOawZs4TuXWzD20/a4etZy+JR7IXZRByiFgPgWMdXev4QwUIDEbHo7D7FchMB/Oi7bPY4WUIVc2mgi354EAYDllrXopPZa9p09i5YK2f4tnGzpNXsSoeMg+1seuYV4gpZHrpxAYm+aM2IaBmiEBOCJCg5wTrMJVKFX16QlYFQVMszubpxGje26Yp5pCX3RTzgXzluSgoChiZjq70l2Hv+P+kY9lScS4khqkAEU8Ur0U+HGzzgRMgUQ0Ez3k8TAZRH7DYwYNhU0T8UBf3CTvssntYm8de0g5jaz1j2UJlF7sIouPtCpwTJIGJ5TM2MjlA+9CHe37o311NgATdiekRvVFdqO1UxLbRkKq7cAq62eGQFaMbxDyHSWPMveTwbf+ONAOE/Bj2KkStbxfGFtcaeZZPjRk8B4qKUfGSR2ZSHM5dj8XNTHS5Tk7z/q6jsAdgjT0GR+f+IbaYPavNYZuUkewcZT1bIG5hcTgfPqdueDwvp2LmRkkO0Bp6ls8V3e4sARJ0J/gLvoTgn7RLiLWNBm0qjGJmgIMM4D3lzIj6YUzWnzwzZJV3w5azR+QTQMwXsXWQX90UhGIJdrP4aTHPYwefsw/2sOMBMaa1DlHxBrxp2umGx2FhLn2MdWhLBtjt2mnm+fFneyazK+Q34ODXsHlUbU6Kmfa1qicndVOlRMBGAiToNsLe15RUAknJpm1niWWLnWje8jZxK5oBq9n9pcyA/ea5iKA2zxOHt59XwBp/WDoRtqDNYb1wYrcX1sjtW/21nJyLKoStfrDNTYL1dcUrs0QErHXY6uYEXDwcRoIcAcsSE9k6fRzbJI9iH/GtYWeK74C17rf+6FbzoBvrX0BdNLnUlSIhQILuwESLUkmY+6duh03RhVFgL7ERLDF/4FBty/eaY3KYTlbB/iafwV6AoLdtwnhzexpuQ6NiHQG01tHdjulkRVkGF3yCJaIx2EcOgmdjNDyOaCBBjcaSsIf9AX0BW8PHsw2eMeyzyiuskkchbY3HkncNOJmexTQh6RFpy5p1TxLV5BQBEnQHyAtKSVJre2irSxJlZUcAt/yEwWrqLYVQYVyMtM7SQRcs5lXHU8/+rJzFlkNimCjY5GiVU8khAUwnC5a6KPlB2CWWCMcgKY39a+s4QvMZgODHrcla9mtww2/xjmAf9axkp4G1HuMlWUfCS5BeXisdu1uQ/RQQl8NHiqq2hwAJuj2cP9CK4B29V4vCaRACSKB1GmjvaHDdHLen9cCZ5ip8M1oo5rivHCPY7/Wcw54WF7KtcIwp/h1a61RsIGCeyArR8Gitg+olwVJPRiES3qH1DTwZLwHLOo/E57GN2hi22TuKXa28aEbCqykf+vJBbjJEuPPRx73M/LXtNlClJohATgmQoOcU7yEqlyt6uTy+UdaaJuZlpPvQMago5hDZbqWYe9EiAwG/Q74QrPJZcE55KQm5U88ptIsJaURZBKt9YG0dD32xOxJ+yFoXuM62qHXsl/rprMFXx671vMymsT3mMbiZvGsICgQFjjrlGclX0+sgYmqaCFhCgATdEowZVCKV9wmlR6wTQk0T8y7SHcVchzC1PnB5QjY4q8QcM73huvhT0kL2B/lctkmcaILF9XIqThIYiIT3BnymCz6OLng40c0JUR9I76uzkKGwf8UWsB16Pfucbyk7X1gGyzEQw5FJ8VZ1Z3Ib3UME3EaABN2hGRGVin6j5Ih1LPrkeQ51IfNmIQjOXDfHIDiLCkax67Bi+gv5o+wpeRHbI9SZUe2ZWF0WdYmq2Z+AmY8GAua8HiYNinoy6lxefPN5gedwWXICa9KrWJOvml2rvAB/h+euQyxHCgVfSOJJQ1ckCcL5qRCB/CeQ2pOf/+N03QgEpTwmls1bk3eBcYPJY3QMgoM1TSuKGcUOGd6u91zD/qEsYS1CrbleTmJuBV3r68A1dX9ZAPauB2COnJslDJgTYcvZHq2c/TJ6Ovt+4mLWJ5SYuftTCUtR4PHlFVO2CJ5y2oNu/WNCNTpAwJpvZAc6XhBNese0qLGSsJgvs4BirkLyGNhvziw6cAVd7BuFCewb3i+yl6SjwG3qA8sc9wVTcTMBAR5aH4i6v6IEEtCgMjrTW3ydgCeShcEF/5fYsewbsY+y9WyCearecF2SFYFJky74p1g2frszvadWiYC1BPJFSqwdtVtqk6u6mH/mZtw6kw+Fwx5zw3S1QyY4CyLaMbvb07Be/i3v1WyVMM10uaPVRSVPCAymji2pLIX0sZIZce5UwZdAFdztz8Znsq9GP8qeMeaBqA9z1ooEFn7VnDWCHHCw504Ro3YLkQAJupOz6qntFMqOfjuLXTe29h63qBm9ZZa0iaeg3S2fz36uXM4ahDFQJ56tRd+rlsC1tRKBybCu7q8sZ7IPTtZzcArxZRCb35Acyb4du4Q9ZBwPOeIPvM6PeXJUFfIuK17af27r80KN5ZIABcXtR1fXIAl58O2jjfCaeYLeV8mkyj5WdtQqueqE13MxCZKntl9t/etyFvz9tbmo37I6h7aooZhr2e03R9HGNfNfKZeyB+RTGAAGq5xc7JbNlUMVyRAoV1pRxqJCCHLBOxdjNvBSyFmLWsq+wy9k/T4f+4z8KmSIl9+ThEaG42LV0klbvb7Krlwh00Pr57Dgm8fxZNtIJvhjLHDYZqn82BWCr74zV21SvcVNoOgF3fzQ9b54mt7z/Bn6W7NmC3qozNAScAoERnyJhiR7E+pbRzWKE7/3E7HugkcFAc4HtbCI/ikNyURlryL2VWlu1TVAwUPgZs9yi9qQO/0mz6fYE9JiOG4DtkGRmFv4NDlblQBb2wJgqUf7wuYBL04VXFdHYe/VFHZD9DwWgeQ4VykvmX9nDAbxKbB+zqZf/kepcvo2q/up9b69wNj9nZ+xdafO09S4D/d4wvcGNK2ouuSPJVee0CBVnfoirzr1JaFi4XJJ8lLqQ6snoUjrcy5E1SHgemzvKN730qms96XT9L43Fkt6Z52hJ7xcj/skERbhzPf7dwu65gwQWsVbGtJGfOkOceL3fwLHLMas6r4e3TFR33L1H5TYS0tU574DDz4csM4NOApVb60dyNOeYUHhjoFt/mPPp9nz0gJYPZdT3FyUYYN0m2MEMCd8rD/MknDWuqML60AA90qgNX6d/7nI1crLJZjTAEU9UCIwbfG95ysTz/qvVaB0XRWN9n9/jO348p1cC5aL8H2yf1yB+emB/9N1DM/3JkTJm+BSeVAoOXK1ULPkeaFqyQtS6WFbrOoP1VN8BAreQufgRjf6Xj+e9b2wxEARf3vWVGaoCjfgPAamy/gBG/qgGQewvYc+kHoyXCa3/fIbuqeuU9fid0qyz5psJ3J9u1h+zFss+dIS1z1+CEYDVyVGtWeRp31AzH3sB8qVZiQ77hOm4A3XzbZlHcL93b6KUshrHDEPeHFS1CFUz3wh/0XszBJNkDqukV+sLxFUFlXluEcJhC0bNBoCva+cKuz4wr1Mj5lRdtju/sX8ejFT6uL/Ej5BT/iYHqzgib2jjd7nzhBlT1JdPrOVlx33hlhz+vNC5akvSb4RHVb2keoqbAKZm1wu5cIhFNsIrz+cdz97Ju8FEQ+tmi8Y0QDnqEwavqybY84kIhd35+jcG/csWDlfKJu9ySoEWsejH5G2XvQoZNTMqF9W9eNA9WBUu95WM/BNlEFBMcetaD/0XMleBDHHSPaCe+gy4FIct3AW7R8QdbTanSwYcqmLEvu674U9Xy99eaw09sSH5IU3fVUqHddiRb94ortKXXXCG1Jyy2Fggaddhg6zG8AkQW5dWTPgRwjM3CxWn/qSWHXGc2LFcW/CITLOZfNJe1R0g90ECsJC12Mto1G8ee/zp2tvTjqRae0jDB1yk8LalSngqCCD3yfZfK/gG7dHSfj09r9fAZb/DbDdxZLoH8E3aZfunbtaZmuPhEOt3FEwEC6hMKOnfOAtIwMVxq1EQdg8dAO42V+S5pur5RlU4w4e1IsMCIBrGyz1GEx6Ag92yebDl0Hr+9+C6+eSobFfxs4YW1fK2i6fdOGDXovEHNvR+145RdG2zMTA+UzKe9HoMuSsx3PumBF6ZwEPrzlSb779a5rgiydXHr9OgLV3sfr058XyhcsFSbHGU5hJp+ke1xHIS0HnaqhU73vtRN7z/Om87+VT9eWTDgPLHLNbwIvuwDr4kBt9yM1lFXkDPrBG11PniBOu/wXUac2BDt5xu3jlCUtZ99ojIcmVOwq42A0IhONx2IqUQRwgWuYhFmA3eT/FXhTnm+9TJObumFq7exEoB/c7PABJh93vZh54nmQ3R84ameweNzWuaZJPljOU4Hcp6mrEZ2z/yoeyPst1v4nZ3z0PrwvgXYRoAK56eP+bi3n/suNY08++qyujWtUNn3hFAPe8VLXkOeYd2WF10K7dzwq1lx0B13/Hch0Xb3XJiKw9gnc/f4aBlnj/8kVgPnrhWwKX62wdgxkkxzwJ+bimcZLXuu0nWtsDl0k7Lv+XBsdOO2jI7HuaDDhBTd8DgXAZ4MVo9gQcoXGz5wr2X4hmN0w3u7Mu1+w+JnR31gRg+iN9uKXNHZGfktfHbzx+9te+MH/mb7IdG1eDZeras5+WIm8en4m7PZv24bti8IMlcKF0zgYIrHterF7yglhx/OuCUmZpjEA2/aR77SHgagtdjzWO13Ze/xWj7V+XC2r7yCEk+xTcVinf//UZXPkWz4/gm7xTVWZtVIxNc1SnnWjwDmUGwqGzI82McCjcGtz3K88l7ElpEYm5xc9J3lYHn9UAZJSL9BhMSzrvhtITceGGNzbd/vf1O4JXHD71z9lwNcCwwPgcJ95Z3zVooA+R9Udw+NH3/Po6TfDG1fWXPS6O/cpvxIpj3hLE7D0R2TCie+0hYLUuWdJrbmiS3v7AZdpb89ayPbd/fX8xt6SBLCox3yGUkW1gdVq6a1z0T9omwFs1GLaOFwPytBuhQNpiPpCpS2R3Kheyh+WTYPUANxGQZe74hLqkA+hOK6kqN89Vd0Mx4jF2/ctr//T0jj3nZNMfUZB0wTN671BgWzZ1WXWvwCGCvuvBy7TVJ7yuNXznZ7qe8FhVN9XjXgKuFHQQ849qmz79F1Hvr3SD+3n/6ZPgu0isOukVUfRZthcd6xe8df1CxUmvMlXUHf1iwLVzPEktTR02g47AHv+LdIaZAS4Oe84pL7t7P/hO9UyAKNWSahB12R2iricS7LP/fePx15vaT8iYiahEWdWJrwku+zYdiGXlotH0y2/AGv9vuA4nK1EpaAIuewRBR6I7J+g7vv5rkSW9aWpKzifKXD8XJU0c9am/CErpMCc/pN8doWTWJjVw7HLZQSvdgMh2Dhlw03G1o5jjcadPgIv9X3D8KWTKoBPT0p/+orlDhP2fJZWQ8tcNpxKB6umGIX7+qTcfXd3atSCTSRAkL8cskkm9LOjGkxOhT4Kx989X6l2PXJjJ+Oie/CHgOkHXm279NtMgj7rL1BzFHD4Y3Ki4+EHcLpKLKRYDMzaLkEyCO/UejSle+9KzznEJQgIxf108gv1BPpc1CSNg1SDrwOFc4KU6XURAVCRzSxuKu+MF9qN2RxM133xp1R929IQmZ9If0TNyjzT5xhskWUmCE8JVxbTUuarou2/5DuTjyJOzHV2FMG8644JP07us0CWkd8OWMKYpbtFzFHKMgIP9nkm9ZPEb4tTbvpGr6FFB9qlC5aJlaqKqxwnjhUNkOyaSScc6RzHfLE5g9yjnsg3iROaFU9SoEIFUCMhehXlLMVbDBQoI4enrOoPzbl+x6YbOSKwqlf7vfw1Y6YY0+gv3qNWf/Isk+6P4neEmYYflAIHFd042Qmvnpjs2uj5/CLhK0I1Yw2imRwNOfrwHLXEGWR3QIodVYW9c9I5o47Uf/7tyOGR0843Zm9PpDczaKFef+qJot9sd18574DS1NOCjm72TVbL7lbPZm+Ic5ofNalSIQDoEPCV+5oXDU9xQeDLBHmpo/eQDm3ZfGVPVtL8bIdFUTJl51xe1Md/5qaGM2cOFEnPb2NB3iePvLYYm8+Cqo9zAmvqQGwJOOXcPOBrBiJTg3vLcDPXAtWJjGMwy9DYNxyFByueyEJPLQlyp74D9nEuNkR//h1K+4B3G/pTzrkmBiU16yz0vsOB/zxdF1fP+fNC56gCHIFg8hCXVJDJomWPg2z9hzfxJcREkd02m8y6Qq2FQvXlGAOMv/JB4Rtc1piWc3q8JL/DRCPvpiq23Ta4s3Qoon0wXpyB6cE/ezVq06a+sAzJKYu6MZOMEQw2VcTjJURaTXjMWB1yQ6Aq3N+iXQwI6+I6lUrAE3CXock2PecxgjguK95CI455vQygLcqWin8P550LJ4evEypNeFSpPekUunbGdsbehN7/OcY/eV33ZwuWq9+i3FfbmYsMOoxfeoYx++Jyn+CqFX8KYGxv3mT8gnWqeXiXTMaj2PiOF1BruUa8oZ+GefmZozsdf6LEou/p/yx9Z19F79BH1VWszQS0HxjfDfT/DHz3eXicHXztZ6375ZD0MZ0uokJpa7a9gRrDcIxsSiro9Ai9w0VPTncl46J78IOAuQQ9MbE8um9nJtR48DcSyYrrRB4LazDdi1fDGBbGq1/BU9QqVU3cIZQuXiZWw7aTi2BWimYDhH5a1nUlFUvncderOm54z2pYvBKmVch1PYOZsT2PtHLenLRdnsb/JZ7AuoRysc+cThWTCme5xDwERFp1LIEgu3BuCyNOcv9MfeuDwJZFI6so3X3znD62h6PmjygKt2ZCCE9M64f4HB3+YFlw/Wwq+fgLvf/14NbzlMKb3VpmBwFpflQJLbRyGjwgOdPpjNv1ggicplB65Oqs66GZXE3CVoCMpccRl/zZ2//R7Zv7iDMv+Ao5WZ1KVNC7XdHN4OzWUEe1i6bw1QsXi16XKE14VvPXwxvp4hi3l7jah4oSlauukXV6lYWpOD2wB61zHrHApFhkOP20R6tm/5NPYOnEKg6M3UryTLiMChyYgQZCcH4LkosEIXJjr19hhZgMObVjT0Xf0vau3fwWu/LaVcyeXH74R6sOf32O9ev/bR/H+N0Dg3zhejW6bzpPdNczorvHIkBwG3fODAp+Ne96MdC+fu1Ysm4PtUilQAik6We0bvR7bO8pYd+ZzUnzjnHS8b2h9m/lYMfM7uNF1sapHhLPLDbmuQwgcBtvBFr/Byo97Qy6d1mDfaDJvSU/2l+g7v3ur3HP3tTocmJizrzdVYmoTZNVNoQG0zHHd/D75bDMbHIq76x6gzJHTnS4ggM9TBKz0pFtyvgcC/J7T51943ozxj9mBhyc66vS+Nxaz4JvHGeE184Rk2yie7KzDH48Hciqje37Qek9V4CWAqkk1XfKsf1wu1Z7xvB3joDacIeDK72Ot8/HzjO3f+KWiNUzFh1c/gAduyIU+lJ0pqQcigmdkG4NANhaYtFMoO+Yt3C8uls9/J1/zGOsdj5+nbb36HoW3j8Sz0nNRjN4ypndVDLtVDdfN8WF5TlrAfuL5JOtm5WYyGSpEwGoC6HIPdbtjPR0DS8pLfaGnLzvt6Ok1FRgoZ2vhkS3Tjb5lx8EJa4uM2LbpLNk+kifbRyisr0rAHeWD348HWqVATyVG2Cd5RZ807iu3y5NvvMnWzlNjthNwpaAjBb3jsfP15l9dx0Orj/QoETh/Ef5y6AxOdKMnIBrdM6qVeUe1Cp4xe4TyeWsYiLhUdvTbgremx3aSOWhQT3RXGg3fuk3u/dNn1VwEx0EiGa25nnGw0ocrKN5bxfHsx8on2TJxNhyMCm4DKkQgRwRUOGo10g+7vlI1Q3PUD7NaUWJnTR/z8L0fWnSpT5EdW+DnkI8dzkefbwTfOoYFVy7g8caJLNk6iidaR3mUGGzof/93pGCwwOyN4kjYcjvxW7fmEhHV7Q4CrhV089mMNY/U2v72GXw7ZWpXncBUhQm+OFeqeoTAzC1SxTFv85Kj3pZKpux2B07re6G1P3KBvvWLv1OY9VY6j/qY1gJHpA5zohpuUQsLAXYPZIL7nfIRVsJJzK2faarx/QRiwTBLhOFZc8G3lOD1sVtPnXvlp7I8mc3KWeYQPa+H31nAQdzhpLXDWbKz3tyWhjuF5ArYsQNiXn/Zv6XKhSusbJfqci8BF3xUUoOjh7dNYUbMJ8rlQe6bsAdSRqaw6pta3W6+yrTSd3zj13LvXz6tQRI2ywYNFeltEHsT8R1y+EOnpT0PrvYblM+wEAg7rqVTIQI5JwBrbSFYT9eT8OA7npWFMb/PE33246cvmFlTuTnnY8+gAYw/YhoE1DE4b8I3vhnOm8DoQipFRCDjSHK7GUml0/MimM1qLpK3pk9rf/gJtefZM2WlbZRm1Q4xHWQZE8kMU1C8G8TR5ha1bqGCssENB4z+3ToCEOXqLw/AGeoaeN4te5XNuH+xhBa48dV1t0EFH864khzeKPlH4/a6rLbY5bB7VLUNBNJOb2hDn6iJ9xEQq055Qaj50P9wX6pVhooRgZztwyTlQzEPgYQ/IR0H+85nk5jTk2k7AdkD+d5LcHnYeUHHDeKvNLaf/e/Nuy63HQQ1SARSIECCngIkpy8RPdVBYcTH/qnLkxusOlrVCIGgD1PwK3SDOJn9B7LB0aErw9Gif88VAU+Jl0lmxhXnRd1Qk+ymV1b/pi0cg72eVIiAuwiQoLtrPg7aG6HyhNekmnOe0Hn2xzNiVDtmhztUwah2dLH/WzmVtQtVtG6eJ89JIXYTj1j1mVa6O0J+uiKJ2p+/ueHGQmRNY8pvAiToeTJ/kuRVhVGfvl/3zNooebLrtBE9tLsdA+GSgsJelw5nz4kLyNWeHW662wICss/DlIDXFWvpmNnlX+t2fG5ZS8dxFgyNqiAClhEgQbcMZe4rksrnrRXrL3xEM0rCZla8TAoYOXwYdzscpMpaWC37s/QhsNMlsIucd3VmMlS6p3AIYOyID45aFfDBd8HjaBiG9OPX1tHe7sJ5xApiJJnKQkEMPh8HIY/85P2s5JgVkOsiszKMux3FOwrHrTwrHc02ihMh0atVYfWZdZfuIgJDBERFYj7I9e4KRYdevLOn47j/bN79MZohIuAWAiTobpmJFPsh+GEP/pirf6+yka0YJ5RuMfedHyK6HQV9j1AHh68sgUA4EvN0+dL1uSMggK/I4/MyGQ5xccM2NojRE3715oYfJ3Q9y0Ww3DGjmouLAAl6Ps539dlPi3UQIGekHyCH2eEOVtDVjtb5Y/LxcKJaLQXC5eOzUeB9xgA5L7reXTFOznb19E+6+52tX3NFd6gTRU+ABD0PHwFJKYlK4667zfDN3CylkRqIG3C6evzgyWQ4HFW3E5LIPCSfTNvU8vC5KIou44Ej4JpSIEjOFVY65Fm9f/W2L4eTaklR8KdBupoACbqrp+fgnRNKZmwXR3/hHo1X9iopijpPgGdQP7Btg+cyRgUviPlJrI+VgbS7IPIoT+eGup1bAhgYpwTgqHCrsixl013wu7eHoiPuXLX1m9lUQ/cSASsIkKBbQdGhOsSRl/+DVZ/9lGbAyXMp+CB57FDWucCahHr2pLSIrHOH5pOaTZ3AgJXujrV0nTP5P2sbPhNKqqWpj4CuJALWEyBBt56pbTWKSmVQnHTTDdx/2GY893i4YkQPHLuDgXBxwcMeBus8DAej0ja14UjSvztNQJQk5glAPoVU3mRz3dlBK/32tzd/L9dNUf1E4FAESNDz/PmAo2N3ihN/8CNVqOk6lKjj+jlLHjgsHoJ12R5Wxx6XFtM2tTx/Hoqn+2AWyzLzQtS7G9bSYT+I54nNuy+Nq/rwJx4VzyTRSG0mQIJuM/BcNCfVnPuEUHvRQxpGvR9sRuOYC/uDfnm0xhNMYY8oJ8BBLGSd52J+qM7cEBDgDdaDa+kHfehz0+4BawUrvTUYGX33mm3X2dgqNUUE3kOABL0AHghB9iXkST/6oVB25GoczgdkG/7CjG4/4P5zgfUKZewx6QSwzrUCoEFDKBoCIKISirobIt6hLwmD+x7btIsSzRTNA+i+gZKgu29OMuqR4KvvFKfd+UVdGt3ywSxynHG00A9QVNht/ox0DOtnJbR2nhF5uslJAiIIugJud1cU2Biypzc8/p+bd33SFf2hThQdARL0AppyqWLBO9K0n39TY6Wh93shefKDAXGmux0OYXlQPgVkXS8gEjSUYiGA6+emle51wb506EtY1cseWLfrqmLhT+N0FwESdHfNR9a9keou/rc48tN/NpiSHAoA5knYqK5/cKp12G3+ung4bFero33nWZOnCpwigFa67HdH9lUw0oVd3X2Tl+/tWOwUD2q3eAmQoBfY3AuSVxcn3/w9XrpomQGedhR1U9APUPAkNcwKR9vUCuwhKLbhwEMuywqTMMMSWMmOFm6wrmi8/q9rG651tB/UeFESIEEvwGmXlLKwPOcfH2W+6dvM4akHXj9vFuvZ2+IMkHWHvwQLcA5oSDYSQLe7B9fS0e1uY7sHacoQRGlDW/dcOrTF+bkoth6kmDS02LDk/3gl35g2Lbj6o/raM5/lSaP+/RHu6G5/WlqoQv52BTK85/+AaQRFTUAQIB0srKOrcoLBWeWOsuDQ/p5gdPw9q7d9HTpyi6OdGWwcXy7Wd/TOa+gLT2nuj0xtDkYmQ2a7irimBxKq5k0Yhg+XCyAmQRQFQZcEQfNKcjygSKGagLezvsS/d0Spv3laddmWI2or1pV5vWE3jIv68F4CKSQMJWT5TEDreubM+NNfeFRMGP79rZc47D0/z/dT1iFUueTkqnymTH13AwEOa0yxUIQlIjHH87wLcGrSorE1rz122ZKT7GQTSiTLn9/Ves4bLR2nbu0Mzm4Nh8f0R9VyVdNkA8QaRFvE3+Z/Y0YpKLgyd4DNrviPpr8DVjQ4iDympoIlPMGQRFGXQfRLfUpkZEVp08yayg3HjK5ZumTiqGdB9NvsHC+1RYJeVM8AhxRx8RVf+rO+/skr4PXbTBCLn+PXxLns/7z/B3a6s9ZMUU0GDTa3BDAZYjTOon0uMB5h7+j4cv+ue887/tKjRtaszNXAe2KJmnc6+455s7XrQy/saDm7qatvjJrUJB0+62hxox4P/MrZWgS+DYDgMwOOttVLfJ7Y+IqyHYvG1b186cwJ/5hVW7FekiT6ksnVA/C+eslCtwm0k81wQ5MSL13wgrZzzXEw4ZrBxMB3PZ/te0ZaWEkBcU7ODLVtKQEwJfWkyqL9YfO3o3neoS+KKKifPGr6H352yvwvWjVOXefi6q7ehS82d3zkzfaeJTt6w7NAvGXTXQ7Wt/nCDi5/NaEyDRio8QT8OWdiftBhYS4rdN37PHJyVn3VOxceNumflxw2/p/lXk/IKhZUzwcJkKAXyVOBlnrsqVNX8b0Nc6LMJ5/u+6V5XCoVIlBIBHBfehzc7vGwC9zuEHl/7KiqpY99dMlJIG4Zqyquf2/sDh71TFP7xc81tl/cGomNQ9/3gPU9fNGSGlNjcRD3pJPxBXAipKBNq6/c+vE5U+67YvbkP/s9UlQWRbLeh5/ClK9I6YFIuTa60NUEuKbKsadOWvd8Z/2Eb3ivDZB17urpos5lQAB1LgHiFe0DQzBjCc2g4QPdAm73sWW+xl+dtfCzJ08Y+WI6taq6ITcFI1P+u7vtikcaWj7dHk+OtSKEX00kWRL4aHENqnNMS3WIvONHjal/85uL5vxo4Zja1zEIT5Elym6VzkNygGspyj1LgPl0uyArmq4njnz+gV8vFQx+dD71nfpKBFIhgBoOa7awJ11hOoiXo253EMzWUHTskzuaL4NupSToENRW9lZ770lfeGnVF1e095yoCkIAzOpUhp7SNbgTAH8MHdzy8TjEHCSZroOO2rvfTzJgGWBlc8eJl7a8/GyFzxO+/Igpv++PJ3/mlcS4T4GtClQyIkAWekbY8vemiKoHFj/4cmtU18vzdxTUcyJwcAIo6vEgut2jzke7w4vF4jE1L/3n4lPOAPfyAS1QVdeF/oRa+1xTx4V/2rz7uua4Oo3bJLIQ4Q7WusrisDPAANc8/tmRAtsOwWjnH5o2/sEfnjj3O/WlvtYSRYk50pc8bpQs9DyevEy6vqKt6+SoppU5arlk0nG6hwikSADWq5kMWeMg6trxs9IxQG1vMDJ2bUfPAuj+iv2HAGvjUm88OeJf25ovun9L09daEvokWBaz1VoWYBkeE/LgATdaMgnCHmU6CLztsg7eDDDahae2NV/6v4aW80+ePPLZhp7gN+oCvrZyHwXSpfjoMxL0VEkVyHWvtXSfTWJeIJNJwzgoAUECi08WIdodjgQeOtTACV4o6OHYuGcbWj+yv6C3R2Oj/rWt6ZL7Nuy+vpOLY40keJntdXu/jwZnskdhZZ5KU9hjoRiwSzoj7JrhfWlH63mLd7add9qkUY/v7A99vd7v21vqUeJOTGE+tUmCnk+zlWVfYXuLcOZjS8+AamipJUuWdLu7CeiqzvDHUTFHROY56YJ/a0fPYZDMRQgmkhXL23tP+dyLq27YHtfnGrC9zFkhf+88ostdAmEvrVHMqPgEWuzAEXcP2FoM3QwdeH5n6/kvNrR8+Mr50+/cG4zeVu33tMMaO7ylUTkQARL0InoudgfD05rCsclFNGQaahESwCAvTQW3MaZCc9I6H2IP/WiPxEe+1dZ9MrjXv/Ds3p7LQNzhBER3B3UrcIKd4lXMZD3xKKyxQyCd7Sa7rmHqK/mPa3Z+9aFNuz/1rcVH/KAjHH2ovjTQXoSP9rBDJkttWESFc8GfNu7+6q2rtt4GHxAzYxwVIlBoBFDAMZlKFILiDNVhd/sgXDze1RvwGt6APyZ4vCVchej7PCrIVAOWCQgyxG1vTiSqMXFh4BzERiyENLM3nTj3q5OryjaVeT3kht/vWaLT1vLog5VtV99q7zkZczhnWw/dTwTcTABdxG4QcxRCDDgrqSpjvrJSUCMx78Qc5xk9HRK8lAQqy5i/rBT+2yHHLgbOwbr+sj1dJ5z9j+eX/fbtLTe0QMChm59Fu/tGFrrdxB1qD7bGyCc+/Gpzd0Id6VAXqFkikHMCeNIaZopLROKOuttFCMrzBPwg5H773dQ5pCxA0nbMPJcIDVrrdq+tD40NrXWPhy0aXf3qD48//PoZdZWrArLs7jWMHM7LUNVkrdkA2Q1N7AxGZvQltUo39IX6QARyQgAsYkOD9fOE7mjUJ0aL+yvQmi0pKDE3rXXYW2Za6+h1KA+YOwkcKWitJ+LszZbuky5/dOnTf1vX8H8dkVitI31xUaMO+U5cRKBIurKyvfcEcJ2RR6ZI5rsYh4kPtwGBZgbu5XYgGA5d7DK42P3lpQwtdAdTq9oy/b5SEHTIypeAvPm4PdCMhLf5G4bDdr9uTaq94dU1v9jSHZyzqzf000lVZQ22AHBhIyToLpyUXHRpdWf/cfCBk534osvFeKhOIvB+ApjEBS10U1dsFhYUcwh6Y96ywEDbTrmibXws0Fr3+L1MhjX1OLjgk3iymxPjHtjiJv1r854rG/vCk1a2dH13wZja5TaicE1TDvlLXDP+ounIhp7++UPHKxbNoGmgRUUA84PrIOh2W4m4ruwFa9VfUWL7i4TTE4yijkl8fDB2ZCBAdj6nihGPsjdae0/56nNv/fmRLbs/GkkkPU71xal2yUJ3inyK7erB1fN4dOsMQd072lCjAVGp6Gfecc0sMGuTVDp9eyrV4IEPix9+dYKjUUKpdJSuIQKZEgCzmMM+aUMzbNVzFDA/BL55SgLOWKeZ8rL4PvRQ+MA7AaeomUfX4tKHE4XHY2ybYcz83kur7th7dGxCXyJ5d6XXE3SiL060SYLuBPUU2tRjjaN4x38+zrd94VIpsvJoFmDMPDkYdpCrQUkTa057QWu5/wGh7oJHJU/FIR/Yzb2hubBdzbojm1LoP11CBOwkYK6fg99V1+zbe4654tHF7i3xF7WY75tncLcjCwEi0PFgHHMunCi4rq7Ltbe8vu7HPfFEbVcs/vNav6/Lia7Y3SYJut3EU2iPR7ZN1XZ868dSz38+KsAMgdHBOBzvPFTg0CZZij13lrr9lZPF+PZpeqL3Nslb1Xewqjf3hI4EzxjNdQrs6ZL8JICJSTGTmekCBisx12XIIvUGfCTm+8HGNXRPwGvOAa6rY8Y+RwpkmEtyUfnd21u+EUnqJRABf2N9ib/Dkb7Y2Ch9ydsIO5Wm9MhWEPNv/EoOP3kufDfBFpwP3oU5jo0oY4qc9GnNP/suk+s6dTVyr6SUHPC4wa194SN0bsB6Uu6/6FIZI11DBCwnAB8WDIqzpcDHaMAyRzG3pcW8agRFHdPGoqjHgmFz37ojBYMkYWPPX9bvvCapaV5IGfvdQk8ZS4LuyJN24EZBzKfrO66/TQk9ea4OL7Yo6IcqmNkSjlsW9LZff51VnrAUrl11oOt39kdmUkCciyaaumI5ATPCHXON2/DO6oP1cp/pZrd8GAVTIXpKzP34sIUvBml4taRDljpMkgFegn9t2XMl7H+QOiPx6+tKfJ0FA/p9AyFBd8nMgpt9Gmu47jYx9MS5DIQak61LKXw5GfA5kbxN4/Xel0/hWmyTIPs/kNt4Tzg6yXxdpm8gl8w2dcNSAvA5ATmHoLjcBmKh5YlrxBj8RWV4AshrQNRLWLQ/DKe2OWSpo6jDuvp/trR8ShJEvSeWuL7a7+0ZfgT5dwUJugvmrKtr3eJdm3/+XS246ex+bQ6Lal4WZ16m4rbxfccbQV5oQWN+Ic58QoJ54adEiLFKMciq1RCTgktPYOyqe2E47xH0vnii4pTHlpa5YJjUBSKQIwKmoptBcUIOTXQFUo2SmKc3he+Keqkp6gM59tOrw5KrUdQTCfavTU1XeiQpAcfYfru8AKPfSdAteVpSq6Q/oZbvDkam7o3EJnbFEqM7Y8mR3Ylk/Q1vbZ2rJ6eMCCZnRyOGz5/gHgF+wFB/76FoMtOZTxwQc6+gMj+LJ8rFcLgqHI6W9/mm1LCGrz+zu3X92FL/zvHlJZvLPUpibyQ+AfbnOrc5NDU0dBURyJiAqQ/g/jZPAcuRWOB2LD+mOnVwn3XGgBy+0VxTh2NYA6alHhpYGnGkoPs9ye5fs/3qcq/cF04kby71eiKOdCVHjebo8c9Rb/Os2q5ovG5Tb+jInf3hmU2h2NS2aGJsWzQ+FsR8ZF8yWZMQ5YAgKxAJarCkCtG58K307s/gt9S+byhcsBv6V/z+evdKHfTaL4HAC1q8xu9tr/d5Wuv93r2jSny7g5C//cndbZdrnPvyDB91lwikRAAjzjFLWbQ3mLNVpUBFKURv00copQk5yEXvzlPI2Z0B8FJW4vWGv3/CnO9ecfiUO72SVDDRECTo2TyhB7i3oS80fWNPcMG67uCC3cHojOZwdHJbJD42ISmlmEaKQ5pCjHYzt4WbUW/WPEso8LhMjntAwYwwMzbBm7EhJBMxaAlOiaBCBAqTwJBQRHpykD8Et2HBujkKOhUrCAgsEY2xOLjfrfnmy7BPksxGV5S2/OyUedd+aMqY/2ZYi+tuI0G3YEr644nKZW09p73R1rNkW2/o8JZIfGJHUhsjSAqINhxaYO4zc8jNhImlKRjOglmmKtxKwBT0WIKFe/otT4aIrvbS2krzEBIq1hBAIccjbnGfOs6dU0VQPGx6bcXme8865pLD6io3OtUPK9t1jqaVo3Corrfaek54uaXjHEzcAmvj01sT2gT45GOGiwERJyF1aGao2WIiMCDocRbuDlqaVAbXfksqy8jVnoOHCeMdon0hpiaSOag99SoFj48dM7Lizb9fcOLZFV5Pf+p3uvNKEvQM5uXFprZzn27quHRjd//83aHoNC57ZLTATXc6iXgGROkWIpAFART0aJyhy92yLHFmchQvuNrLrKsziyEW4q14Ml4Y5sypvO9DTEWvl102c+yfbjl1wbV+RT5AKq/8oU9R7mnM1eM7Wy7/X2PbZT9eufWIvbHkRHOdGoPWIHKSChEgAs4QQKvEas8txqLgFjXLXhCcQePqVkVFMiPfI70QJOfgiroBXoIHNzd9fNHY+tcA2F9cDW2YzpGFnsLsvd7ateQfW5q+uLY7eGx3UhuFt+DJTlYFtKXQBbqECBCBgxAYWkOPdIPH1II87uhq9+FxqGUQS0rfkDl/7vB0tjikiLX8rSydnoNxNrqyrPnRS048ZVJFeUM6t7rpWnpcDzEbazt7j75/c+NXV3X2LW6NJSeYFnmOs1G56eGgvhCBfCCwT9AhKM4KUTAD4WogEE6mQDg75h9foHC5xLH0sIODxC3EC0ZXL3v4wpNO8UEODzvGbnUb5HI/ANFwQi25b/Ou6697fd3lzeH4FCZJ6FsnMbf66aP6iIBVBCzyu5unhUGudhJzqyZm+HrwhQzTw4bBw4L8nSpcU9nKvT2L7l27/avQh5871Y9s2iUL/X30VrR2n3D3hp3fX9MdOi6q66VmkJuDD1k2k0v3EoFiIICCgNHSEUwsM9yJRsMAwe1pJdXlTCLr3PZHJxGJsVg/JG5zVJUEVlHi73rxitMXjK8obbQdQpYNkoU+CDCm6oG71jd8/7o31n+iI5YYA8lZBMf2jmc5qXQ7EShGApjHPZvgKvPwFcgGJ9Gec0ceHw/sKlAhn4Dm1CEu5qg5g7witV96dsVfNYOfIouCQwlEMpsCyvEN3Br6wjO+/vraf/x1256vdiTUsWa2A6cSwWQ2j3QXEShaAmZSZPjIYoxLNt40EVbWFB8kg3LUQizaaTTnzwfHrToebAxxUsubOhc/srnx8nybjaJ/dP+7s+Vjd2/Y9f3d4fh03TDkbL4Q8m3yqb9EoCAIwLeYrurmudsq5HTPJPuYGdmO55zDASyZ3F8QHN0wCJgHnMdEBA6NdFSdBFZT5mtbd9X54xRJcujc1/QnpGgtdFXX5bvW7vjeTW9t+V1DMDqLxDz9h4fuIAKuIICHrIGFjqtkmRa83+NXSMwzBWjVfTAPeOa88/v/OeuOJEb89M31P7ZqaHbUU5SCDseYVt28csvtd2/a/YOQZlRS4Jsdjxq1QQRyR8A8mCjDte+B4z09ENlOIUW5m6HUa8bARF+Z39GId7O3hiH8ceWWr/TGk1Wp997ZK4tO0FtCsfE/WL7x7v/s7rwqqRteCIt1dgaodSJABLImgBa2JOFBRJlVpfi8A2vwVJwnANPo8fuYDCeiOV0Squ7/zsurfu10P1Jtv6ie4K29wdnfXbbhvudbey/WkkmF1stTfUzoOiLgbgIDQXFSRq5ajGqX4DgGZ9ds3c3X7t5h6l1vqQusdBj4fzfturgjEqu3m0Em7RWNoG8DMf/JW1t+u7w7dJquJiEFVIav8plQpnuIABHIKQH8NItgYZv7x9P4aKO7XfaBux3X39O4L6eDocrNlysF5kV2wTKIphuB61985858mJaiEPRtPcFZN7+95fa3esOnQDagzCNn8mFGqY9EoCgJwDFJIMq4/prWXnQQcdkLwXDkbnfdU4Pz6SnxOb+WDq8XL+5oObcnlqh2HaT3dajgBX1HX3jmze9s/c3y3sgSrpKYu/2BpP4RgYwIYKQ77CNPN2WrpMgDiWToNT8j7Dm9CZZR0ErH/ABOl6Smem9auvYWp/sxXPvOkxquh1n8e2soOvZuyP62oje6hCfpiNMsUNKtRMD1BNDKRoFO9ShVdLfj2vlAQhrXD68oO4hz44HsfU7meB8ALwhPbG68JKnpkHnIvaVgBb03kai+b0vjdU+19X/cSECSAipEgAgUNAE0snEdXUw1Ohrd7R7FFRZgQU9MFoMz8wPgDgQIknO6RBPJ0t+u3Pxtp/txqPadp5QDOjFV9f57256r/tbQ9lUS8xwApiqJgAsJ4No5utwlBdbRUzhQSYBtbmYQXaomvQvHXAxdMlPyQp53p3clwQZn+Z/rdn5e13XX6qZrO5bNg/pcU+dFv1rb8CM8Ds/phyCbcdC9RIAIpEEALG788je3oA3jQjej29E6N4PhyN+eBmXbL0W3u+L3uGKWOsKR6jVdffNth5BigwUn6Ks7eo795Zrtt8CeVNpnnuJDQJcRgUIhYCaYga1OIqylD1fwOjPFKOn5cKgc/3czV0AKc5rrjqqa4f/FGxtvzHU7mdZfUILeFIxMvGPdrpvadT6O63mTTz/TuaP7iAAReB8BdLvjF78CVvoh3e4g4uhup+1q+fEIoScF19JTWUrJ5Yg4LOav3tt+NCzr+nLZTqZ1F4ygh1XV/+D2ls8v64ueyROJTHnQfUSACOQzAXS7w5c/JiTB89EPVnD9HN3zdLJafkw2elIw377j4Q6wVBOOq2VP7mi5yI3kCkbQl7d2L7l3S+O39HjUjZypT0SACNhEwHS7w/q4jC7aA7nTTet8YLsaedttmhQLmkFRlxXnd42pBvf+dd2OaywYkuVVFISg7+4PT7lj/a6bBtNEWQ6JKiQCRCB/CJj7yzFhDGSAO1DWODMaHtZkB9ztJOn5MrM4X5im12m3O7p1tnX2zYyoasBt7PJe0KNJzftQQ8tnt0a1I82odipEgAgUPQHTmoN19INlGZNkdLeTnufTgzJgoWOwo/Np/WIJzf/C7tYz3cYv7wUdthAc98dNjdcZ5Gp327NF/SECjhFAKxy3peG66wcsOlxnH3S5O9ZBajh9AqDjeOY95hlwtIAHKKHrvkc2N33C0X4coPG8FvTuWLz2d+t3/pBLssdtYKk/RIAIOEjA3JMuwcEreJLae7/mMOmYedyq4xFWDvLJx6YxXz+63eFFzWm3O0a7b2zrOdJtGPNa0F9v7T5zZX/sZHK1u+2xov4QAecJ4Oq4cgArPdNz050fEfUAj7l1w350nIn+WLy8uT88wU2zkreC3haJj/79xsbvcpUOXXHTA0V9IQKuIQCuUUwFi8ej7ltLH8wmh9Y5hcO5ZqZS7gjOm7kl0QXelbiu+x/fsedjKXfehgvzUtA1wxCe2t360V1xbRY3IMMuFSJABIjAAQjgWroCCUmG1tLxz6YYUERcXj4v5ksYqJbkgXV0J9/I4GUxqRneZU0dJ7kJZF4KelcsMer+Lc1fo4NX3PQoUV+IgAsJDFrkHjjcA/ee49kOuA7rBgvPhbTc3yWcPwiCkOBEvQNtSbRzAByCM3b1BCfb2eZwbeWloD/f1HFBp2aMpYNXhpte+nciQATMg1ggOE6BPcxmMBzmb6cta3n7YOD84VKKoxb6IL0QHKkajCfK3QIz7wS9L5Gs+suWxq/Q2rlbHiHqBxFwPwEUcq/fNxBQZXrcnd/L7H5q7uwh7lrAw1oc344OL4oxVfe/09ZztFtI5Z2gL93bdWZzQp/m9LYFt0wg9YMIEIHhCeD3hQiJZjwBEHV0vVPJawK4JfH92xGdGFBC0/zL93ad4kTbB2ozrwRd1XXlL5sbv0rb1Nzy+FA/iEA+EeAM19IHDvkgCz2fZm7/vg4ExsHSidNudwyMMwzPlq7+OW5hmVevqtv6wrPX94Tm09q5Wx4f6gcRyCMCg4lJSMrzaM4O1FUQUvS3S3Bano67Fhz0vWOCmbZQdIxbiOaVhf7Yzr2fBIB59RLilommfhABIkAECoUAJpg5WJ5+e8cosjAExtnb5sFbyxtBDyXU8qd2tX2U0b5ztzw71A8iQASIgCMEcMUERd35AnndVd01qcfzRtDf7ug9oUvVRzk/gdQDIkAEiAARcJSAmYvfBVvXwPsPB7V4G/tDkxzlMdh4Xgi6AZnhnm1qv5hx3Q3MqA9EgAgQASLgIIF9+QQc7MNA05ypuuHd0RuZ5nhXoAN5Ieg65zJsVzvLDYkE3DBp1AciQASIQNETwEh3F+xWAEFX2sKx8W6Yj7wQ9LWd/cd0xZN1bgBGfSACRIAIEAHnCWB0u5n1z+Gic0PuiEZdsRycF4L+8p7Oc2HOHD7V3uGnhponAkSACBCBdwkMnbHjJBNYQ9cMLvfE3GFw5oWgr+jocU0mHiefHWqbCBABIkAEhggMKrqTp65BVwzOxUhSLXHDvLhe0BHUtt6wazLxuGHSqA9EgAgQgWImYKaWQW87nLzm7Ckt5plvAljpihvmw/WCvrEnOD9h6D43wKI+EAEiQASIgJsIDGSNc7Lgia5wNror9qK7XtBXdvQej8CcnDBqmwgQASJABNxHYCDtq7M+d7DRhSQnQU/p6UALneQ8JVR0EREgAkSgqAhwF5h68FLBJUF0RZIU11voDf3RwwZXS4rqQaXBEgEiQASIwDAEBg9qcZITrOVzRRRVJ/sw1LarBR2PS22NuGPDvhsmi/pABIgAESACgwRQzE1Bd7KYu+G5LDIS9OGmoTEUn5zU3bE2MVxf6d+JABEgAkTAHgL7Vs6dj4nDaHvukaWkPSM/dCuuttB3B8MzcEuAG0BRH4gAESACRMBtBBy20PHUN9iKXupRgm4g42pBb48lx5Ccu+ExoT4QASJABNxFAL3tbjhNWxJFrdbv7XADHVcLelc0PgJ2JJCF7oYnhfpABIgAEXATAXMN3XC8R4okqiNK/c2OdwQ64GpB70kk63CPnxtAUR+IABEgAkTARQRA0B2PiQMcsiBoI0t8LW4g43JBV+tpCd0Njwn1gQgQASLgHgIclNxwgXWOEXEeSUxMr67Y6gY6rhb0YCJZCRNHFrobnhTqAxEgAkTAJQRQ0LnujpBpjywnRpT42tyAxtWC7paE926YKOoDESACRIAIDBJAC113RXI25vPICbfMi6sFXedcdgso6gcRIAJEgAi4gAD4bE0L3QUh7gL0o9Ln7XcBFbMLrhZ0DQWdHO5ueVaoH0SACBABFxCATC4GWugGZmlztD/Quj6monS3o53Yr3FXCzocHC9RUJxbHhXqBxEgAkTAeQJmljgQdF0Dl7uTeg4BcV4IiJtVV7HGeSoDPXC1oHtEMeGKfQlumS3qBxEgAkSgyAmYEe7gbkdRd7r4ZCm2eGztq073Y6h9Vwt6qSK7Ip2eWyaL+kEEiAARKHoCmE8G3O2OWuc4CWChBxQpOn9k7Qq3zImrBb1EkUOCIDj/GuaW2aJ+EAEiQASKnADuP9dUzXkKoEwVAb9rAuJc73IvUSSy0J1/bKkHRIAIEAF3EMAId3C366rqeECcyA19Wm3FRneAGeiFqy30Cq+nx9yfQIUIEAEiQASIAMg4JpTBCHdnXe4C8ylS/OSJo55x06S4WtBHlfiaweXufPZ9N80Y9YUIEAEiUKwEwL7TIaGM4wFx4Cnwy3L0jEkjn3bTVLha0McEfI0Ay8mNCW6aK+oLESACRKCoCWAwnJ5QXaEK1SX+7rqA3xXHpg49FO4W9JLAbggkJJd7UX+EafBEgAgQgQECBu4/N9fPnS2QIEWbP6budWd78cHWXS3oo0u9jZIguiNhr9tmjvpDBIgAESgmAqDihqEzzUwo46Sk4wlrQuKSWRP/7jb8rhb0cq8nWOv3tLsNGvWHCBABIkAE7CWAwXCmu93pAu8SFQFf/wnj6l2TUCYvXO7YyVlVZavgF7ndnX6IqX0iQASIgIMEcLuamkg67m6HA1mMI0fXLXMQxUGbdrWFjr2eXVPxDqV/deOjQ30iAkSACNhHAI9L1TVIKOOou52Bu12MfWbu1LvtG3nqLble0OdUl62ibHGpTyhdSQSIABEoNAK4TQ2tc8ezksDLRFXAHzp5wsgX3cjY9YI+Cyx0WRBcsHDixumjPhEBIkAECp8AHsaixpx3t4uQ1ua0KWOecCtx1wt6nd/bMaWydLNbAVK/iAARIAJEILcE9KQ2eFyqk9HtjCmSpF09f/rtuR1t5rW7XtBxaItH1TyX+RDpTiJABIgAEchXAmYwXDzhhkTlfHJtxY4ZNRWb3MoyLwT9hFE1zzAxL7rq1nmmfhEBIkAE8pKADvvOB6LbnbXOoXXtS0fPvNnNEPNCJY+oq3i7RBRcdUydmyeV+kYEiAARKAQCeDZXEtbO3XBG14iKku7zpo9/2M1c80LQSxUlvGhU9YtOb1dw80RS34gAESAChUYAT1VTYwn46nfYOofmr5o/8zavJCXdzDgvBB0Bnj9x1N/J7e7mR4n6RgSIABGwkACkE8O1c1xDd7qU+jzhK2ZPus/pfgzXft4I+sKR1S9XSkIXWenDTSn9OxEgAkQg/wnoIOSJaNz5k9XAO3D1gsNuq/R7+9xONW8EvcLn7Tt5TN1TJOhuf6Sof0SACBCB7AmosTgzNOet8zKfEr5y7tQ7sx9R7mvIG0FHFBdPHXOfIMLBdVSIABEgAkSgYAnosHaeiMSdt99gd9VXFs75cU3A150PsPNK0GdXl6+aWeZb5fws58PUUh+JABEgAvlHAE/iSkRicFSq89Z5dcDTc8WcyX/MF4p5JeglHiXyienj7hQUJV/4Uj+JABEgAkQgDQIGHMCSBEF3Nq4dlu4VD79lydFXV/u9PWl039FL80rQkdRp4+qfqJelPWSlO/rcUONEgAgQgZwQiIciOak3rUohEO7w+oo1Z04a5dq87QcaT94Jeqkid180eeSfBVlOa37oYiJABIgAEXA3AdympsadP4tL9HrZL06bf5VfUSDMPn9K3gm6Ikv8oilj7isXWA9Z6fnzoFFPiQARIAKHIoD7zWPBqPOQJJl97vBJvzlyZM1K5zuTXg/yTtBxePV+T+unZo67ndbS05tsupoIEAEi4FYC8VCUGbrubPfA1V5f4um8dsHMXzjbkcxaz0tB9ypK8sIpY/9cJwl7KXtcZhNPdxEBIkAE3EJAg8NXEpDi1eki+nzsrg8tunx0WaDF6b5k0n5eCjoOtMYrt105a+IvIBIxk3HTPUSACBABIuAGAnAASzQIgXDw29Eie9hn50y8fcHomlcd7UcWjeetoIOVrp0zacQDM/zKGkGiZDNZPAN0KxEgAkTAMQLR/ghkhHPa1S6yyVX+hmvmz/hViaI4H5WX4WzkraDjeOv9/ravHTn1u0wQHX61y5A+3UYEiAARKGICScjVnoQUr04XyaMY95x93KVjy0uane5LNu3ntaDjwI+srXjzI+Nq7yfXezaPAd1LBIgAEbCXgKZq4GoP29voAVoTfX79l6cd9Zm5I6pXOd6ZLDuQ94Je6fP2f272pF9UCEYXBchl+TTQ7USACBABGwjgFrVofxDWzW1o7BBN4E6pT86e8Mezp4551NmeWNN63gs6YphWVbb52/NnXifIlBLWmseCaiECRIAI5IYABxWP9oWZoTqcqx0O+jqivmL1F+dPvwUMw1BuRmtvrQUh6Ijs5DG1T104rvY+wUNR7/Y+QtQaESACRCB1AnFIHqPCNjVHC+w3r4YT1O44c+EVEyrLdjvaFwsbLxhBhwT63VfNnnjLJK+yiaLeLXxCqCoiQASIgEUE8BS1BATCOVpAzD0eT+Iv5y0+f2ZtxSZH+2Jx4wUj6MhlUkXpjm8tmP4NifMEradb/KRQdUSACBCBLAiokDgGs8E5ut8cxNzn90f++OFFFx87tu6NLIbjylsLStCR8ML6qpe+ddS062UZ9hLC5FEhAkSACBABZwloyaQZ0c6dTB4DeuAPBOK3njTvi2dNHfOks0Ry03rBHVnm9yiJvkTy742h6NQHdndeqyUTsqNvhLmZN6qVCBABIpAXBLSkyiK9IOaGgyHtgghi7o/9YOFh37po1oS/5gW4DDpZcIKODCq9nt69oehtLeHYpFfatXO4rgsk6hk8HXQLESACRCALAgNiHgIxdzCiXRRZSSAQ+cbR0266Yu6U3ylS4SYiK0hBx+cPkus3b+sJfafjzfWjNvVH53NmkKhn8cGkW4kAESAC6RDQEirsNXdezMtK/KFvHjPzh1fOm/pbRZIcfLNIh15m1xb8IvP6rr6jvrds431bQ7F5XMe5dNDtk9kc0V1EgAgQgfwhAF+xKljmppib37nOFNztVFkS6P3WsTN+cOWRM+5yphf2tlrwgo44V7Z3L/7+so1/2BVNHma6fpwMzLB3fqk1IkAEiIBtBDBpjBpLsjgeuMIdFHNIGlNbHuj4weLDv/nR2ZP+YhsAhxsqCkFHxsv2dp1y41ubfrcrkphpCjqJusOPHjVPBIhAQRGA71TcY45b0xyLZodIdgHWzEeX+vb85NQFX/7wtLGPFRTjYQZTNIKOHN5q7T7xp+9s+9XmvvBRIOmwpu7cG2QxPWQ0ViJABAqbALrWY+HowMlpTq1qgpBLTNAOH1m19saTj/z6cWPrXyts6h8cXVEJOg5/Q3f//J+/s/XWlV3BEw3OZUejL4vtaaPxEgEiUHAEdFUHqzzCkpDO1SlBESSZlXik8JmTxzxx/XFzbphcVba94ECnMCCn+KfQtdxdsqM3NPP2dTt+/GprzzlJznxc03LXGNVMBIgAESg0AqAcuK8cI9lRzHU4CtWRRF7oYofgt5Flgb2fnDPx3msXzPq5X5Eczi3r3GQXpaAj7tZwdMx9mxuvf7Kp8/LehFrHDZ3W1Z17DqllIkAE8oiAAd+XyWiCYW52rpsLmPYXCHwTYLEeXOxrrj165q0Xzpz4gP2dcFeLTkyDawjohiE9sK35qj9u2n393oQ2yXS/O5kAwTVkqCNEgAgQgfcRwFTaaJWrqinkGM3uiJBDt/Co7AqP1HfWlDGPX330zF/Oqq1cT/Pl2HS4C/3zjW3n37+l8auruvqPN0RJJhe8u+aHekMEiICzBFDLdQh8U6NJiGSPMR2WKQUnzsoA9zpaobPqKtZdfviUP33+yOm/cZaMu1ovagt9/6nY2R+e9o+tjV/6X3PXpd1JfSTXYU2Itra562ml3hABImArARRtA7yWuFaehC1p5jnmGMVut3JALnZBllmtT+44e+rYRy+bM+n+BaNql9sKIw8as3taXI1EAxf84w0tVzzU0PK5d7qCx2PkJNdUV/eZOkcEiAARsJwAKgMIt5bUmBpPmtvRDE2HPd52SwYEvYGQw3Yk9dTJo5758PTxDxdToph059Xu2Um3f45cv7mn/4jHGlo/+fyezgtaEupkXFeHA14c6Qs1SgSIABGwjYAp5ILpUtdQyOMJpoOo226R44BhnRy9+gtGVC3/0LQxj142e/L9dQFfh20s8rAhEvRDTNoLTe3nvtDcfsHzzZ0XRASp0kBrnYLm8vAxpy4TASJwSAKmEoB7HbafqeBeV0HI8aQ0c9nR7rVyEHJREtns6tI14F5/5PSpY/57RF3VWprB4QmQoA/DKJRIlj3b1HHRC80dH3m9tetMTfb4SNiHf7DoCiJABNxPANfIcUl8QMiT5lq5mkyae8xtDXrD/eQo5ODSP7y2bOWHpox97PgJ9S8fParuTfdTdE8PSdBTnIuWUGz80tbOM15r6Tr71b1dZ+uK14vr6+SKTxEgXUYEiIBrCJhCDtY3bkHTEuBeRzGH/7ZdyCFdq6B4magn2Qnj6p8/ddKYZxaMqXkdAt7ecg2sPOoICXqak4XCvry9+5Q3W7uXLGvrOa2HyaMwIt4MnqOo+DRp0uVEgAjYRcC0uHErOQS3oTsdXeuY4Q1/UNxts8gHrXFBUVitxDs+PHXMQ3NG1qxdOLb21WlVFVvt4lGI7ZCgZzirHdH4CMgLv2B1Z9+iZW29S9b3R45FlxHuYactbxlCpduIABGwlMCQSKPljWeU62CFD4m4jlHr2Joda+TYBuwaEj1eJqtxddHY+ldPmzTyqcnVFduOG1P3SqlXiVo68CKtjAQ9y4lXNV3e0hc+YmtvcO7a7uAxqzp6F++IJA/HrRbojjfFnQLpsqRMtxMBIpASAdMIH7LEDVO8tUErHCPX0Tq3xxqHPqA7Hb4HBQW2nSXj6oIxdcvOnDTmsbEVJU0zaso3Ta+p2JzSmOiilAmQoKeMavgLexOJysZgdHpDf3jm+q7gMRt7gkdt7w8fHveWlMI+kIH1dsiBbKaYJff88EDpCiJABA5JYJ+b3DwsBQUcfmD5D09AQ/E2ILubjoYF/FtOrXG0wFHAwQpHTyX49NmogGfPSRNGPrdgVM2bNQFf+8TK0obDaitJxHP4TJOg5whubyxR3R5LjumMxUc1h6OTN/eE5u3oC89uDMemdGt8lOD1Yi5FU9j3CTycz45vz/vEnkQ/R7ND1RKBPCEwZHHv311TvLkp1gZ8h6B462YcD/zZzJkx+BvXxS1zqQ9Y/aZ7HrO2gXjD3jLzpDOB6wwihGPjK8p3HT2y6s0Fo2vfqPR7e6v8nq7JlWXb60v8tHfcpseNBN0m0N2xRE1vPFnfn1Sr+pJqdXskPrYJxL09Gh/dl1BruxPJ+p64WhdKqpUxTQ8wxSOIprsK3nZJ2G2aJWqGCDhLAJ13cIIYbCUDYTYdefBf5qFR+BuX8LiZUx1Ph8R/Q2FHg8CA3/u+JwbXxLP6ch/clw4Ng+EB1j28OMiCkazye3tGlgT2jq8s3TmjumzD1KqyrSWKHPZ7lHCFV+kfVerfU1fi73SWYvG2ntWcFy82a0YeTKrlUVUrjWu6P6Eb/jj8JA3dqxlchs+npHMuwcdUNDeKUiECRKDACaCQQxn8v33v8SjcpuduQLP5gNIPsNgnvBaj2WeQC1wUREMSBF0WmeaV5XhAkSNlXrm/0ufpLFGUhMUtU3VEgAgQASJABIgAESACRIAIEAEiQASIABEgAkSACBABIkAEiAARIAJEgAgQASJABIgAESACRIAIEAEiQASIABEgAkSACBABIkAEiAARIAJEgAgQASJABIgAESACRIAIEAEiQASIABEgAkSACBABIkAEiAARIAJEgAgQASJABIgAESACRIAIEAEiQASIABEgAkSACBABIkAEiAARIAJEgAgQASJABIgAESACRIAIEAEiQASIABEgAkSACBABIkAEiAARIAJEgAgQASJABIgAESACRIAIEAEiQASIABEgAkSACBABIkAEiAARIAJEgAgQASJABIgAESACRIAIEAEiQASIABEgAkSACBABIkAEiAARIAJEgAgQASJABIgAESACRIAIEAEiQASyJvBWS+dx7eHYiKwrogqIABBQdV1c1dp9TF88WUZAiAARIAJEwCYC23uCMybd8VDkq8+9fZ9NTVIzBU7gld1tp8+8+7GuO97a9K2YqvoKfLg0vCIhIBbJOGmYeUogrmrem19f99NIUg88vLHhopd3t56ap0OhbruEQEswMvbXyzd8vzdp1Ny5css3327tXuySrlE3iEBWBEjQs8JHN+eawKNbGy/73662C5musYRmVFz/wtv3tYQiY3PdLtVfmATQ1X7PO1uvW7m3exFPxFl/klf/aU3DlzvCsfrCHDGNqpgIkKAX02zn2Vi3dffP+PaL79zDE4l9Pd/TFxl727KNP8izoVB3XULgzT2dpz3T0HKuxpnCGGdGMsaebe4+/5GtTR+PJVXBJd2kbhCBjAiQoGeEjW7KNQGdc+HG19beElP1d9c3OXwBMyY/unHnx5/d2fLhXPeB6i8sAs394Ql3vb35+qZIcgoHj89AEZgejbBfrdh0w9r23uMKa8Q0mmIjQIJebDOeJ+P9z6Zdn3hxd/v5zDD4e7psGCyq85IbX17968b+8KQ8GQ510wUE/rVx92eXt3SfYCTf9fiY3eIGuN61irtWbb2+N56odEFXqQtEICMCJOgZYaObckkAhHriDS+v+i1Xk+gC/aAbFCz1pr7whN+t3HJdLvtBdRcOgeV7Ok7477amixOG4WPw/Ly/8GSSPb+n5/xHNzddnoB19sIZOY2kmAjQg1tMs50nY4Wo9p/0xZIVB+0ufCHDGqjnsc2NH321qf20PBkWddMhAq3h6BgIhPvajv74YVxVD9oLA1zvt6/c+oOGvtAsh7pKzRKBrAiQoGeFj262msBjW5sufnxL46UHsqL2b4sbOuuNJ2tuWbr25o4IJZyxeh4Kqb6ntu25aOme7tM+4Gr/gJnOWXskMfL2ZRu/G1M12pteSA9BkYyFBL1IJjofhtkWjoy88ZXVv+a6ARHIKRSw1Dd19B1+/9odX0zharqkCAmsbu0++h/rGj4bUrVyXCsfrvBknD2xs/2yp3fs+Yiqket9OF707+4iQILurvko6t78btX2b7f0h1PfYw6CHjd44B9rt1/5RnPHSUUNjwb/AQIxTfM+snn3xzcHY0fw9wfCHYKXnkyIt63Y/OOuWHwkYSUC+USABD2fZquA+7qjLzTjv7vbPi6K6W0Fxu1HbZHkqN9DgBxmlStgRDS0NAms7exf+Gpr94cZ12EF54OBcAetDnZS7OyPTv3N21u+rWqanGazdDkRcIwACbpj6Knh/QnctX7nd6KMVXv96S9dcsbFZU1tJ/570+5PE1UigAQ6orERj+5s+VS7KE9VJIkJQpovipBF7q/rGq56u7VnIRElAvlCgAQ9X2aqgPv5QlP7h1/e03kOfOuKnlI/E6U0H0uwqEI6q/jbuh1XbesOHlbAqGhoKRJ4Y2/3GS+39p6P2eA8AS+TFDk9Kx3a0TTDe9Orq38Ba+lkpafInS5zlkCa35zOdpZaLzwCoUSy7Hfrd94Q1fRqHJ0oisxXVoLfw2kVdL1v7QnP+vv6HVeldSNdXHAEdvaFpz/c0HJlUGfVXNOYDGKu+D1MSHM5h8FOijVdoYV/Xd/wuYKDRAMqSAIk6AU5rfkzqPu3NH1tS29w7v4+UY/Py2SfJ71BwBopHN7ie3Jr84XP7dx7dno309WFQiAOa97PNrVdvKY/fpyhDmSEw3dDj9/PZC8+U+m9KUJyI/ar5Zt/1BGJjigURjSOwiVAgl64c+v6kW3s7p/3cMOez2hM8Lxn3zksd/rLA5AiLr11T6arrCUSH/ev9Ts+G9VoH7HrH4AcdHBdV3DRA9v3XKUaxnueKVzG8cKLoihKoOlpiDpc2xlL1N342rqf5qC7VCURsJQACbqlOKmydAj8fv3O77VGEuMP9AUryTLzwnp6uoUbXHitsX3JP9fv/Hy699L1+U2gMxof8UhDy6fbND4BLev3FBBmGT0/ppWeZtFU9tjm3ZcvbW47Mc076XIiYCsBEnRbcVNjQwT+19h20bL2nlO5AIvmByneEgiQk8GiSqfAumdI4+WPbt79sa3dQUrhmQ67PL92RWv3Kc+39VyM6+YHKhjo7inxZRYgpxu+77206jd5joi6X+AESNALfILdODxMq/mnjbuvC2lG5aGyd2EQU6AskO6yJ2MQILeuK3TUI1saL3fj+KlP1hNoDIanPNjQ8tmIzsrhhL6DNqB4FAiQ80KAXJpffWDhb+0MHv7ndTvI82P99FGNFhFI86m2qFWqpqgJ/HNb87Xb+kKHw0rmsM+f7PUyxZdaJth9UOHLN6np3qe3NV3wenM7uUmL4Gl7fW/P6e8E4ycOl68dE8x4Az4z8j2dpXRECOcHSL94Y93NumEM+9wWAXIaogsJ0IPpwkkp5C61R2KjHt2591NxzkoOZUntYwBuUh9a6elGJ8O6545gbMb/tjdfVMg8aWyMbe0Nzv7ntqZrIavbe4MrDwJHhEQzaKWnne8A6usKx+tuen3dz4g7EXAjARJ0N85KAffpz5sbv7arPzIDrPOUQ9glWYHkIOkHyOmqLj25rfmiJ7Y1X1DASIt6aOFk0vdic8f5O+P67EMdjbo/JLTSPWile9KMzzDNdM7+vmrbVZ3haH1Rg6fBu5IACborp6UwO7Whq//IF/d0nK+Jojcl63wIA1rpGPGe8ivA4I0G5HmPa6Of39lyLh7UUZhUi3tUDf2ROX/b0vglXVPT+i4TIULO44Ogy3TX0gF3OKlVXv/y6juKmzyN3o0E0voQuHEA1Kf8IfDXLY1faQpGp8LxqGl3GvcP+0owg1wae4jRoNI04YktjZc8urnp42k3Sje4mkBvLFn5xK62K3qZNIrpelp9HbDSPUzyphmfYbbC2cvb95yxvqP3iLQapYuJQI4JkKDnGDBVP0DglT0dH1rR3nMyk2R45tITZbMCsM69kJNbSHsbm8GiXCx9cVfLh2D9no7DLKAHcmtfaO4D25uvNFQ1o1FxeKgwQE6CNfV0H0nw+FRe/8LK32XUMN1EBHJEgAQ9R2Cp2vcS+Nf2PVe3xdXxECmcMRoBsn35wfWe1lGYaE/BF/6zO9vOf3L7noszbpxudBWBDng5+/f25i+oklKW1vLN/qMAK12BRDOyR4bMw+kPb0Nr1xFP79jz4fTvpDuIQG4IkKDnhivVuh+B/+1uu2RjV/98MLMz+Np8L0oFsn1JSrpuUs5U+O5+fseecxr6QlNpcvKfwLbe8JxnWrov4bCbIZtiut4hgVHanh9oNKkbZT9duv4X2bRP9xIBKwmQoFtJk+o6IAE4l/qTnao+OhvrfKhiOGEV1tJ9GVjpSfZqS9fpr+xqO4umKb8JoHX+z+3N1xiCmP5m8gMMXcZkM5gSNoP3zcbe/vEPb2m8NL+JUu8LhQAJeqHMpEvH8d+dez+2qSd4JHQva+vcHCLUosBJbJgYJN0CCcTE53bsOXdHb3B6uvfS9e4hsK0vfPhL7X3nfyBfe4ZdNJPNwEtiJvvSE7pR8qsVm27MsGm6jQhYSoAE3VKcVNn+BHTOxSd3t17eqfIxPM0o5EORxLSdeHBL+mvpaKX3nL60seM0mqn8JNARjY34x7bmL0JYZQabyA8+ZjwMCNPCpm2lQ0eau/sn/GfzLkoznJ+PVEH1mgS9oKbTXYN5ZnfbxVt6Q3MPla890x7LHthylG7EOzTGuSG8uGvv2Tt7Q1MybZvuc47ArmB0xottvedy9cAHsGTas4G1dLDS4fyA9Apncd0I3LF8y/d1Xafv0/Tg0dUWE6AH0GKgVN0AAbDOheeb2z/SntDHWWmdD/HFg1vwNLa0rXQIonqhse2cFS2dlOM9zx7W3kSi8oFte74AcRSZbX0cZrwyBFtKaKVnUFr6Q2Oeb2w7M4Nb6RYiYBkBEnTLUFJF+xNY2tJ51obu4NEWrZx/AK4AAUwYyCTitvZ0ClhiHLy1SxvbTmsLxUalcytd6yyBlnB8ypONrRdmG9l+sFHgk4Fr6ZmcxBZOquW/XrbxRrLSnX1Gir31NL8Nix0XjT8VApphSM83tV/QFEtCVrjM950P1xbuS/f5M7DS1QR7bFvzpSv2di4erg36d3cQCCXVkge377lSVLy4xSE3nYJqMeI9IysdXjB3dfdPWdPRd1RuOke1EoHhCZCgD8+IrkiTAOw5P2pDT3CBAOlac/blC31CK132KxlZVDp8c69v75kfV7XMfKxpMqHLsyPQk0iO+O+u1o9BKt/sKhr2bgFeEvG89DTX0uEloz+RrLp9xcbvD9sEXUAEckSABD1HYIu52qWt3WftDEYP43quv3xB1OGlwQPb2NJ9ceDxOHtoS9MnV7Z1LyzmucqHsScg2OzlPV3nxCSlKhcBlu9hAMIs+2EpJ4NDWzj46tft7Z4fiifL8oEr9bHwCJCgF96cOjqizmis/p3O3sWq7PFlnJIzjRHgFy9mj0vbCcsN1q7y0Tu6+2ermp6mOZZGB+nSrAmEEmrtIw0tn7Fq3/lwHRIg8MMDop52nhl4GeiJx2tvf2szWenDQaZ/zwkBEvScYC3eSt9s6z19a2/4iFTPps6aFEixCElmMEI53WIkEuzxbc0f3R2KUKKZdOHZeD0kkpmzLarO5ZAZyI6COycUnw8erDS/HuG+pCH4Xti552x4SUw/85Edg6M2CppAmk9sQbOgwWVJAL/EVnf2LerW2SjY751lbSneDqY5nm0t+5T0t7DBksCyPV0nNPaGJ6fYGl1mM4GIqvqfbmy/DIIrbfWiSOZLYvq5azBSvisSq13V3nO0zaioOSLASNDpIbCMQFM4OmVbX+hw01eZq0jkA/QWA5gUSDSDQXJpFeyj4hMbeoIzYJ2WLKq04NlzcUzVy15u6TzHjniM/UeESzgyWOmZPFO9cbXmnxt3XmUPIWqFCLxLgASdngbLCKzt7j+2oT9yGMt5JPL7uoxud9iPjlZVuovpPBmHLWxNH9vVGya3u2VPgnUVbYZMg12GMNrOF0Sz9+h2N1PBpjkWuE+HRaD1rd1HqvSSmCY8ujxbAiTo2RKk+/cRgCMtD+/nQp1t7vahlsGcwmQgeK41ujzTKdzQ2LqO/vmQI3xkOvfRtbknEFM13ytgndv+gjg4NEwtLEoZuN0xOC6aqIbtm3NyT4laIAJkodMzYDGBnliipjkUnQzfgLa624eGga7R9M9JR0uMMUP2SH2xRLXFSKi6LAnoBpdXdvSdkPOtagfpJ74amseqplsgfqQ3nqh5dmfLeeneStcTgWwIkIWeDT26dx+BXcHIjJZIfGLuE38cBDoIOrrdMzkC04DguNVtPccEE8lymlL3EAiqWsU2WMJJN1+/ZSPAPeleOaN19LjGAxs6eilrnGWTQRWlQoAEPRVKdM2wBDriyTEdscQo29c69/WMm1+8ErpI0/O6M3TpvtPWu6gzkiC3+7Azbd8FeyKxSYasQJKBdCfUuj7isaoZFUhL3B2OjcjoXrqJCGRIgAQ9Q3B023sJ9CfUyghEJDv25Yvr6Gilwxdp2uvocEdnNDoyqmkBmlf3EGiPxMfakZzoUCM219DTDYwbrFDVeYZvA+6ZA+pJfhEgQc+v+XJtbyOqVhbX9YDtAXH7E8Fta+kmA8H7Dc6CcbUyqete1wIuso5BhLgA+dvrHAnIeB9rOK41bfroVEhqugcD+9K+mW4gAhkSSP9JzbAhuq2wCaCBjD/5Okqw6vO27/nKfLh+65ynH2I+XKWZ/HtGT4a5TCDojNN3bCbM6Z6MCNDDlhE2uun9BDyikJAFpjqt6Rys7bQLfGH7ZSmqiCL0n4obCCiSxEsUOeSGvmQUZY/ZCyUxWaooUVeMgTpRFARI0ItimnM/yBJZDgUUOeyojQ5anlG+b3CpVvg8vQp8AeeeFLWQKoFqr6cz/XNMU609tevwBTGTmDw06mURDHQqRMBGAiToNsIu5KZq/N6OKq+nO5P1Rku4gEWE25sMOMAj7XSdsO4+ubJiW7nX02dJX6gSSwhMLC/Znv5kWtL0vkoMHTQ5A6cPvgUEPGSdWzsbVNtwBEjQhyNE/54SgTq/p7Xa5+nIKCgtpRaGvwitc0NL3ygSJZkdNbJ6eY3P0z58K3SFXQRqvUq7n+thu9r7QDtgZmuqlr6ew30CvFmOKAvsdazv1HBREiBBL8ppt37Q40sDDaMCviYhg1SZlvQGrXOwpjJJQiJIAptcVbbVp8i0hm7JZFhTiSyKycMqSlZjWl9nisB0EPT0fe4ig/X/8BF11auc6Te1WqwEnPqkFCvvgh13mVcJTSwLbOfJJGZ4sX2cuNapq+lb59jXEqaHyr1Kj+2dpgYPScAji7GFo2pegmxBjpDCp1hLpv+Oh0s+VX5P97nTxzzkSMep0aIlQIJetFNv/cBnVZetHumVmm230uELFNfO1Xgy/SVXWWEnjK1/YUJ5SaP1RKjGbAh4JUk/eUzdUxm5XbJpePBeHTIIGrqRfk3wJlBfFmgfV1FKz1T69OiOLAiQoGcBj259L4EFI6tem1Fdvk4AkbS1gLsdc8jjF3C6RYJz1JdMHvPUmIqSlnTvpetzT2BCmX/79BLvOgEP/bGxoJWdjCXS3zUB9/kEFj1t8thnbOwuNUUETAIk6PQgWEag2uvtWVBXudRnaGE71z0xGC4RT8COuTRd/SAS4/3yzsPqKtZaBoEqspRApc/b9/EZ4+8SPfYm8TPgJREFPd2CuzxqS/0dHz980r3p3kvXE4FsCZCgZ0uQ7n8PgTPGj3h4RnlgraBkcOxkhixx7Rzd7enqueQPsEsPm3D/9OryDRk2TbfZQODEMbXPjPYIO+16SUTrXI3FGU/X3Y7JZASePHHSqBdHlvhbbUBDTRCB9xAgQacHwlICEytKG04dW/+E39BCdnwBm9Z5NA752NMcBmxVm1rm2XzyxFH/K/UoUAEVtxIYXRpo/vSMsb8UvPakRcd4jGQEBD3NjDJondeU+Lq/sXD2TW5lSf0qbAIk6IU9v46M7uKpo+87sqb8TQFEM5cFT1VTIQpZBXd7WtY5JAqRvF72sVkT/zSrltztuZwjq+peMq7+saPKva/lOj4DrfNEOG7uP0+rwH0egcevPnrWbWPKSprTupcuJgIWESBBtwgkVfMugRq/r+uTh034zSiPtFuQc+d655rB4qH0U2WLgQA7e3zdwx+ZMf6fftp7nheP7qiSwN4vHT75RoXrwZwlLwJR1pJJWDuPpc8EXhIPH123+hNzJt2T/s10BxGwhgAJujUcqZb3EVg0qub5S6aO/qOf6RAgZ32EMu47j4Ui6WeGgwj8KaWerZ+eN+XO0ZTJK6+e2/n1Va98c9607wuwMyEtj0yKo8Q181gwmv5WNXC1V5Z4en9/9sKPlXk9kRSbo8uIgOUEcusTtby7VGG+EIA9xFowkbyjJRyb+HBD62c4qjpPd6H7IKMFaygejgwEwqVToAtlith77dEzbztmTN2r6dxK1zpPAJ4p3pdQ/7Y7HJ36z6bu/zNi6XtnDjYKXC6PBUPpJ5IBq16RWOS+846/YDztO3f+ISnyHpCgF/kDkMvhw2Enwf5E8pt9Sb3q+T0dF5kZ5NIMNDpQ/xKRmBm0lFYBK0oWeey6RXN+esH0CX9FcUjrfrrYFQQqvUrf3nD0F8GkVvVUu/AJPZq9QYzbHWOhEEum+4II94GLM3H3OYs/fsK4kfSC6IonpLg7QYJe3POf89FXeD29fYnk571vCfEnd7d+DI7DFLMR9UQ4CuvmsfQOzADLXBFZ5DsnzP3Rp4+Y+tuAR07TtM85JmogDQIQ9b6nNRz9TsnG3aF/NxnXGvEM1rz3tQdi3h9mCdxznuYrniCx5O/OPv7j500f/3ga3adLiUDOCJCg5wwtVTxEoBJEPZRUr6n3eVv/uq3xS5og+WChMm1A0X5ws+P+4HS+eWHNfERAafvBifOuP3fa2AcgCC7N8OW0u0k32EBgVGmgpSsav6lUkYJ/3LLnm5wbIuT/TatlMw4D3OymZZ6O5wjz/3uU0H8uPvmMo8fULU+rUbqYCOSQQJqptXLYE6q64AlENc3/6p6us29+e/NvOjVjDKZrTaXgkajRfljfNE++SuWOgWtE2Le8YETlsptOnPu1+aNrV6R+J12ZLwTgmfI839R+yc9Wbv1lryGM4GoKzheMZk+oLB6MDKyZp/EtCFsxjbkjq9bef+7i80aXl+zJF07Uz+IgkMajXBxAaJS5J9AWiY2+Z8Ou7/xrW/NVhiR5GBx7eqCClngyHIMAOHCxp2NBwelcPlGIfHnR7F9cc9SM2yBxTPYLrbnHQi1kQaCxPzb5vk07v/XvhpbPmgGYB/EA4XOUgK2OmNYVE8ikXCAGAx6r2C2nH/2lC6aNe7Dc5w2lfC9dSARsIkCCbhNoaua9BBK6Lu/sj8760+ZdX31yZ+sndEGUh6Lg0RWahGQxSQh+01HsU7XKRdHwQHT9pXMm33/dwsN+Uh/wtSiSlMa3Ns1SPhPAZ2pzT2j+Hzfuuh6s9vO5BJmNBkUbMwqiiGMwpflMpVoEQZNlSfjkvGm//faiOTdV+jz9qd5K1xEBuwmQoNtNnNp7DwFV14WmUHT607vbL3twR/Ond7X3TkrGkmCRpyrkgoHB8+OqSvdcfsSUez41Z8o9cLZ5Lwl58T5oqm5IO/vChz3R2Prxx3fs+eiuruDE9HKzQ9y7JLLJ1WUNnzhi6h1XzJ74Z4i9CMEzleqrZfHCp5E7SoAE3VH81Pj+BFRNl99u61784JbGT61q6T62IxIdGUoky/DvzYPOwQeP/++H3OtVfm/P1NqKrWdMHP3QOVPHPlrj93QrspTaojxhLxoCCVX3LG/rOvHBTbs/taa16+iOcHxEOJEs1Q0uwbMk4EqOJIq6zyPHq/2+7ul1FZvPmjTqoXOnj3+oVJbC9EwVzaNSEAP9f+iXVtaZkqOWAAAAAElFTkSuQmCC;" vertex="1" parent="7">
                    <mxGeometry x="30" y="150" width="140" height="140" as="geometry"/>
                </mxCell>
                <mxCell id="9" value="&lt;font style=&quot;font-size: 24px;&quot;&gt;Check the weather and prepare your outfits&lt;/font&gt;" style="text;html=1;align=center;verticalAlign=middle;resizable=0;points=[];autosize=1;strokeColor=none;fillColor=none;" vertex="1" parent="7">
                    <mxGeometry x="10" y="70" width="480" height="40" as="geometry"/>
                </mxCell>
                <mxCell id="10" value="&lt;font style=&quot;font-size: 20px;&quot;&gt;&lt;font style=&quot;font-size: 20px;&quot;&gt;The temperature outside is 24.03&amp;nbsp;&lt;/font&gt;&lt;span style=&quot;font-family: Helvetica, Arial, sans-serif; text-align: start;&quot;&gt;&amp;nbsp;°C!&lt;/span&gt;&lt;/font&gt;" style="text;html=1;align=center;verticalAlign=middle;resizable=0;points=[];autosize=1;strokeColor=none;fillColor=none;" vertex="1" parent="7">
                    <mxGeometry x="5" y="310" width="360" height="40" as="geometry"/>
                </mxCell>
            </root>
        </mxGraphModel>
    </diagram>
</mxfile>